<svg width="27" height="28" viewBox="0 0 27 28" fill="none" xmlns="http://www.w3.org/2000/svg">
<path d="M23.0771 22.3189C11.8865 27.6447 4.94148 23.1887 0.495768 20.4823C0.220669 20.3117 -0.246904 20.5222 0.158779 20.9882C1.63987 22.784 6.49371 27.1125 12.8294 27.1125C19.1694 27.1125 22.9412 23.6531 23.413 23.0497C23.8816 22.4513 23.5506 22.1212 23.077 22.3189H23.0771ZM26.2199 20.5832C25.9194 20.1919 24.3926 20.1189 23.4317 20.237C22.4693 20.3516 21.0248 20.9398 21.1504 21.2929C21.2149 21.4252 21.3464 21.3659 22.0075 21.3064C22.6704 21.2403 24.5275 21.0059 24.9145 21.5118C25.3033 22.0211 24.3222 24.4476 24.143 24.8389C23.9699 25.2302 24.2092 25.3312 24.5343 25.0705C24.8551 24.81 25.4357 24.1353 25.8253 23.1804C26.2123 22.2204 26.4483 20.8812 26.2199 20.5832Z" fill="#03031A"/>
<path fill-rule="evenodd" clip-rule="evenodd" d="M15.5527 11.4519C15.5527 12.8493 15.588 14.0146 14.8817 15.2556C14.3116 16.2647 13.4086 16.8851 12.3996 16.8851C11.0223 16.8851 10.2202 15.8358 10.2202 14.2871C10.2202 11.2298 12.9595 10.6749 15.5527 10.6749V11.4519ZM19.1698 20.1946C18.9327 20.4065 18.5896 20.4217 18.3223 20.2803C17.1317 19.2916 16.9198 18.8325 16.264 17.8891C14.2965 19.897 12.9041 20.4973 10.3514 20.4973C7.33459 20.4973 4.98364 18.6357 4.98364 14.9076C4.98364 11.9967 6.56278 10.0141 8.80759 9.04552C10.755 8.18779 13.4742 8.03647 15.5527 7.79944V7.33527C15.5527 6.48264 15.6182 5.4737 15.1188 4.73719C14.6798 4.07629 13.8424 3.80385 13.1058 3.80385C11.7387 3.80385 10.5178 4.50505 10.2202 5.95796C10.1596 6.28092 9.92256 6.59876 9.59971 6.61386L6.11871 6.24061C5.82617 6.1749 5.50332 5.93787 5.58403 5.4888C6.38615 1.27139 10.1949 0 13.6052 0C15.3507 0 17.631 0.46417 19.0083 1.78596C20.7538 3.4154 20.5873 5.58971 20.5873 7.95575V13.5455C20.5873 15.2254 21.2835 15.9619 21.9393 16.8701C22.1713 17.1929 22.2218 17.5815 21.9292 17.8235C21.1977 18.4339 19.8961 19.569 19.1798 20.2047L19.1697 20.1946" fill="#03031A"/>
<path d="M23.0771 22.3189C11.8865 27.6447 4.94148 23.1887 0.495768 20.4823C0.220669 20.3117 -0.246904 20.5222 0.158779 20.9882C1.63987 22.784 6.49371 27.1125 12.8294 27.1125C19.1694 27.1125 22.9412 23.6531 23.413 23.0497C23.8816 22.4513 23.5506 22.1212 23.077 22.3189H23.0771ZM26.2199 20.5832C25.9194 20.1919 24.3926 20.1189 23.4317 20.237C22.4693 20.3516 21.0248 20.9398 21.1504 21.2929C21.2149 21.4252 21.3464 21.3659 22.0075 21.3064C22.6704 21.2403 24.5275 21.0059 24.9145 21.5118C25.3033 22.0211 24.3222 24.4476 24.143 24.8389C23.9699 25.2302 24.2092 25.3312 24.5343 25.0705C24.8551 24.81 25.4357 24.1353 25.8253 23.1804C26.2123 22.2204 26.4483 20.8812 26.2199 20.5832Z" fill="#03031A"/>
<path fill-rule="evenodd" clip-rule="evenodd" d="M15.5527 11.4519C15.5527 12.8493 15.588 14.0146 14.8817 15.2556C14.3116 16.2647 13.4086 16.8851 12.3996 16.8851C11.0223 16.8851 10.2202 15.8358 10.2202 14.2871C10.2202 11.2298 12.9595 10.6749 15.5527 10.6749V11.4519ZM19.1698 20.1946C18.9327 20.4065 18.5896 20.4217 18.3223 20.2803C17.1317 19.2916 16.9198 18.8325 16.264 17.8891C14.2965 19.897 12.9041 20.4973 10.3514 20.4973C7.33459 20.4973 4.98364 18.6357 4.98364 14.9076C4.98364 11.9967 6.56278 10.0141 8.80759 9.04552C10.755 8.18779 13.4742 8.03647 15.5527 7.79944V7.33527C15.5527 6.48264 15.6182 5.4737 15.1188 4.73719C14.6798 4.07629 13.8424 3.80385 13.1058 3.80385C11.7387 3.80385 10.5178 4.50505 10.2202 5.95796C10.1596 6.28092 9.92256 6.59876 9.59971 6.61386L6.11871 6.24061C5.82617 6.1749 5.50332 5.93787 5.58403 5.4888C6.38615 1.27139 10.1949 0 13.6052 0C15.3507 0 17.631 0.46417 19.0083 1.78596C20.7538 3.4154 20.5873 5.58971 20.5873 7.95575V13.5455C20.5873 15.2254 21.2835 15.9619 21.9393 16.8701C22.1713 17.1929 22.2218 17.5815 21.9292 17.8235C21.1977 18.4339 19.8961 19.569 19.1798 20.2047L19.1697 20.1946" fill="#03031A"/>
</svg>
