<svg width="128" height="35" viewBox="0 0 128 35" fill="none" xmlns="http://www.w3.org/2000/svg">
<path d="M18.2891 15.9659C18.2541 12.3958 21.0779 10.6536 21.2063 10.5677C19.6077 8.12626 17.1455 7.795 16.2703 7.7582C14.1933 7.52509 12.1863 9.05867 11.1244 9.05867C10.0625 9.05867 8.41721 7.77046 6.66688 7.80727C4.41479 7.84408 2.30272 9.21817 1.13583 11.3529C-1.25629 15.7083 0.529052 22.1003 2.81615 25.6091C3.9597 27.3267 5.30162 29.2529 7.05195 29.1916C8.76728 29.118 9.40906 28.0383 11.4744 28.0383C13.5398 28.0383 14.1233 29.1916 15.9086 29.1425C17.7523 29.118 18.9075 27.4126 20.0161 25.6705C21.3346 23.6952 21.8714 21.7567 21.8947 21.6586C21.8481 21.6463 18.3241 20.2232 18.2891 15.9414V15.9659ZM14.9168 5.45169C15.8386 4.23709 16.4687 2.59309 16.2937 0.912277C14.9634 0.973621 13.2948 1.8815 12.3263 3.07156C11.4745 4.1144 10.716 5.83201 10.9143 7.43921C12.408 7.5619 13.9483 6.64175 14.9168 5.45169Z" fill="white"/>
<path d="M39.0077 25.8189H32.9063L31.7824 28.9298H29.8557L34.9134 15.0212H37.0207L42.0583 28.9298H40.1316L39.0077 25.8189ZM38.4859 24.3337L35.957 17.269L33.4282 24.3337H38.4859ZM46.089 19.9584C46.4503 19.3296 46.9855 18.8077 47.6946 18.393C48.4171 17.9648 49.2534 17.7507 50.2034 17.7507C51.1801 17.7507 52.0632 17.9849 52.8527 18.4532C53.6555 18.9215 54.2843 19.5838 54.7393 20.4401C55.1942 21.2831 55.4216 22.2665 55.4216 23.3904C55.4216 24.501 55.1942 25.4911 54.7393 26.3608C54.2843 27.2305 53.6555 27.9062 52.8527 28.3879C52.0632 28.8696 51.1801 29.1104 50.2034 29.1104C49.2668 29.1104 48.4372 28.903 47.7147 28.4883C47.0055 28.0601 46.4637 27.5316 46.089 26.9027V34.1481H44.2626V17.9313H46.089V19.9584ZM53.5551 23.3904C53.5551 22.5609 53.3879 21.8383 53.0534 21.2229C52.7189 20.6074 52.2639 20.1391 51.6886 19.8179C51.1266 19.4968 50.5044 19.3363 49.8221 19.3363C49.1531 19.3363 48.5309 19.5035 47.9555 19.838C47.3936 20.1591 46.9386 20.6341 46.5908 21.263C46.2563 21.8785 46.089 22.5943 46.089 23.4105C46.089 24.2401 46.2563 24.9693 46.5908 25.5982C46.9386 26.2136 47.3936 26.6886 47.9555 27.0231C48.5309 27.3443 49.1531 27.5048 49.8221 27.5048C50.5044 27.5048 51.1266 27.3443 51.6886 27.0231C52.2639 26.6886 52.7189 26.2136 53.0534 25.5982C53.3879 24.9693 53.5551 24.2334 53.5551 23.3904ZM59.6521 19.9584C60.0133 19.3296 60.5485 18.8077 61.2577 18.393C61.9802 17.9648 62.8165 17.7507 63.7665 17.7507C64.7432 17.7507 65.6263 17.9849 66.4157 18.4532C67.2185 18.9215 67.8474 19.5838 68.3023 20.4401C68.7572 21.2831 68.9847 22.2665 68.9847 23.3904C68.9847 24.501 68.7572 25.4911 68.3023 26.3608C67.8474 27.2305 67.2185 27.9062 66.4157 28.3879C65.6263 28.8696 64.7432 29.1104 63.7665 29.1104C62.8298 29.1104 62.0003 28.903 61.2777 28.4883C60.5686 28.0601 60.0267 27.5316 59.6521 26.9027V34.1481H57.8257V17.9313H59.6521V19.9584ZM67.1182 23.3904C67.1182 22.5609 66.9509 21.8383 66.6164 21.2229C66.2819 20.6074 65.827 20.1391 65.2516 19.8179C64.6897 19.4968 64.0675 19.3363 63.3851 19.3363C62.7161 19.3363 62.0939 19.5035 61.5186 19.838C60.9566 20.1591 60.5017 20.6341 60.1538 21.263C59.8193 21.8785 59.6521 22.5943 59.6521 23.4105C59.6521 24.2401 59.8193 24.9693 60.1538 25.5982C60.5017 26.2136 60.9566 26.6886 61.5186 27.0231C62.0939 27.3443 62.7161 27.5048 63.3851 27.5048C64.0675 27.5048 64.6897 27.3443 65.2516 27.0231C65.827 26.6886 66.2819 26.2136 66.6164 25.5982C66.9509 24.9693 67.1182 24.2334 67.1182 23.3904ZM81.175 29.0703C80.2518 29.0703 79.4222 28.9097 78.6863 28.5886C77.9638 28.2541 77.3951 27.7992 76.9803 27.2238C76.5655 26.6351 76.3514 25.9594 76.3381 25.1968H78.2849C78.3518 25.8524 78.6194 26.4077 79.0877 26.8626C79.5694 27.3041 80.2651 27.5249 81.175 27.5249C82.0447 27.5249 82.7271 27.3108 83.2221 26.8827C83.7306 26.4411 83.9848 25.8791 83.9848 25.1968C83.9848 24.6615 83.8376 24.2267 83.5433 23.8922C83.2489 23.5577 82.881 23.3035 82.4394 23.1295C81.9979 22.9556 81.4024 22.7683 80.6532 22.5676C79.7299 22.3267 78.9873 22.0859 78.4254 21.845C77.8768 21.6042 77.4018 21.2295 77.0004 20.7211C76.6124 20.1993 76.4184 19.5035 76.4184 18.6338C76.4184 17.8711 76.6124 17.1954 77.0004 16.6067C77.3884 16.018 77.9303 15.5631 78.6261 15.2419C79.3352 14.9208 80.1447 14.7603 81.0546 14.7603C82.3658 14.7603 83.4362 15.0881 84.2658 15.7437C85.1087 16.3993 85.5837 17.269 85.6908 18.3528H83.6838C83.6169 17.8176 83.3359 17.3493 82.8408 16.9479C82.3457 16.5331 81.6901 16.3257 80.8739 16.3257C80.1113 16.3257 79.4891 16.5264 79.0074 16.9278C78.5257 17.3159 78.2849 17.8644 78.2849 18.5736C78.2849 19.082 78.4254 19.4968 78.7064 19.8179C79.0007 20.1391 79.3553 20.3866 79.7701 20.5605C80.1982 20.7211 80.7937 20.9084 81.5563 21.1225C82.4795 21.3767 83.2221 21.631 83.7841 21.8852C84.3461 22.126 84.8278 22.5073 85.2292 23.0292C85.6306 23.5376 85.8313 24.2334 85.8313 25.1165C85.8313 25.7989 85.6506 26.4411 85.2894 27.0432C84.9281 27.6453 84.3929 28.1337 83.6838 28.5083C82.9746 28.883 82.1384 29.0703 81.175 29.0703ZM90.7467 19.4366V25.9193C90.7467 26.4545 90.8605 26.8358 91.0879 27.0633C91.3154 27.2774 91.7101 27.3844 92.2721 27.3844H93.6168V28.9298H91.971C90.9541 28.9298 90.1915 28.6957 89.683 28.2274C89.1746 27.759 88.9204 26.9897 88.9204 25.9193V19.4366H87.4954V17.9313H88.9204V15.1617H90.7467V17.9313H93.6168V19.4366H90.7467ZM100.626 29.1104C99.5962 29.1104 98.6596 28.8763 97.8166 28.408C96.9871 27.9397 96.3314 27.2774 95.8497 26.421C95.3814 25.5513 95.1473 24.5478 95.1473 23.4105C95.1473 22.2866 95.3881 21.2964 95.8698 20.4401C96.3649 19.5704 97.0339 18.9081 97.8768 18.4532C98.7198 17.9849 99.6631 17.7507 100.707 17.7507C101.75 17.7507 102.694 17.9849 103.537 18.4532C104.38 18.9081 105.042 19.5637 105.524 20.42C106.019 21.2764 106.266 22.2732 106.266 23.4105C106.266 24.5478 106.012 25.5513 105.504 26.421C105.008 27.2774 104.333 27.9397 103.476 28.408C102.62 28.8763 101.67 29.1104 100.626 29.1104ZM100.626 27.5048C101.282 27.5048 101.898 27.351 102.473 27.0432C103.048 26.7355 103.51 26.2739 103.858 25.6584C104.219 25.0429 104.4 24.2936 104.4 23.4105C104.4 22.5274 104.226 21.7781 103.878 21.1626C103.53 20.5472 103.075 20.0922 102.513 19.7979C101.951 19.4901 101.342 19.3363 100.687 19.3363C100.018 19.3363 99.4022 19.4901 98.8402 19.7979C98.2916 20.0922 97.8501 20.5472 97.5156 21.1626C97.1811 21.7781 97.0138 22.5274 97.0138 23.4105C97.0138 24.307 97.1744 25.063 97.4955 25.6784C97.83 26.2939 98.2715 26.7555 98.8201 27.0633C99.3687 27.3576 99.9708 27.5048 100.626 27.5048ZM110.494 19.7176C110.815 19.0887 111.27 18.6004 111.859 18.2525C112.461 17.9046 113.19 17.7306 114.046 17.7306V19.6172H113.565C111.518 19.6172 110.494 20.7278 110.494 22.9489V28.9298H108.668V17.9313H110.494V19.7176ZM126.19 23.0091C126.19 23.357 126.17 23.7249 126.13 24.113H117.339C117.406 25.1968 117.774 26.0464 118.443 26.6619C119.125 27.264 119.948 27.565 120.911 27.565C121.701 27.565 122.356 27.3844 122.878 27.0231C123.413 26.6485 123.788 26.1534 124.002 25.5379H125.969C125.675 26.595 125.086 27.458 124.203 28.127C123.32 28.7826 122.223 29.1104 120.911 29.1104C119.868 29.1104 118.931 28.8763 118.101 28.408C117.285 27.9397 116.643 27.2774 116.175 26.421C115.706 25.5513 115.472 24.5478 115.472 23.4105C115.472 22.2732 115.7 21.2764 116.155 20.42C116.61 19.5637 117.245 18.9081 118.061 18.4532C118.891 17.9849 119.841 17.7507 120.911 17.7507C121.955 17.7507 122.878 17.9782 123.681 18.4331C124.484 18.888 125.099 19.5169 125.527 20.3197C125.969 21.1091 126.19 22.0056 126.19 23.0091ZM124.303 22.6278C124.303 21.932 124.149 21.3366 123.842 20.8415C123.534 20.3331 123.112 19.9517 122.577 19.6975C122.055 19.4299 121.473 19.2961 120.831 19.2961C119.908 19.2961 119.118 19.5905 118.463 20.1792C117.82 20.7679 117.453 21.5841 117.359 22.6278H124.303Z" fill="white"/>
<path d="M35.0716 1.34778C35.9182 1.34778 36.6444 1.50105 37.2501 1.80757C37.8559 2.1141 38.3193 2.55565 38.6404 3.13221C38.9616 3.70877 39.1221 4.3948 39.1221 5.19031C39.1221 5.97852 38.9616 6.66091 38.6404 7.23747C38.3193 7.80674 37.8559 8.24463 37.2501 8.55116C36.6444 8.85039 35.9182 9 35.0716 9H32.8055V1.34778H35.0716ZM35.0716 8.36505C36.1371 8.36505 36.9472 8.08772 37.5019 7.53305C38.0639 6.97109 38.3448 6.19017 38.3448 5.19031C38.3448 4.18315 38.0639 3.39859 37.5019 2.83663C36.9472 2.26736 36.1371 1.98273 35.0716 1.98273H33.5718V8.36505H35.0716ZM43.1513 9.08758C42.5894 9.08758 42.0822 8.96351 41.6297 8.71537C41.1845 8.45993 40.8305 8.10232 40.5678 7.64253C40.3123 7.17544 40.1846 6.63172 40.1846 6.01137C40.1846 5.39102 40.316 4.85094 40.5787 4.39116C40.8414 3.92407 41.1991 3.56645 41.6516 3.31831C42.104 3.06287 42.6113 2.93515 43.1732 2.93515C43.7352 2.93515 44.2424 3.06287 44.6949 3.31831C45.1547 3.56645 45.5123 3.92407 45.7678 4.39116C46.0305 4.85094 46.1619 5.39102 46.1619 6.01137C46.1619 6.62442 46.0305 7.16449 45.7678 7.63158C45.505 8.09867 45.1438 8.45993 44.684 8.71537C44.2242 8.96351 43.7133 9.08758 43.1513 9.08758ZM43.1513 8.41979C43.5455 8.41979 43.9104 8.33221 44.2461 8.15705C44.5818 7.9746 44.8518 7.70456 45.0562 7.34695C45.2678 6.98203 45.3737 6.53684 45.3737 6.01137C45.3737 5.48589 45.2715 5.04435 45.0671 4.68673C44.8628 4.32182 44.5927 4.05179 44.257 3.87663C43.9213 3.69417 43.5564 3.60294 43.1623 3.60294C42.7682 3.60294 42.4033 3.69417 42.0676 3.87663C41.7318 4.05179 41.4618 4.32182 41.2574 4.68673C41.0604 5.04435 40.9619 5.48589 40.9619 6.01137C40.9619 6.53684 41.0604 6.98203 41.2574 7.34695C41.4618 7.70456 41.7282 7.9746 42.0566 8.15705C42.3923 8.33221 42.7572 8.41979 43.1513 8.41979ZM55.4409 3.02273L53.5689 9H52.8026L51.1495 3.9861L49.4965 9H48.7192L46.8472 3.02273H47.6245L49.1133 8.22274L50.7883 3.02273H51.5546L53.2076 8.23368L54.6855 3.02273H55.4409ZM59.2881 2.91326C60.0033 2.91326 60.5872 3.13586 61.0397 3.58105C61.4922 4.01894 61.7184 4.65754 61.7184 5.49684V9H60.9631V5.58442C60.9631 4.93487 60.7989 4.43859 60.4704 4.09558C60.1493 3.75256 59.7078 3.58105 59.1458 3.58105C58.5692 3.58105 58.1094 3.76351 57.7664 4.12842C57.4234 4.49333 57.2519 5.02975 57.2519 5.73768V9H56.4856V3.02273H57.2519V4.04084C57.4417 3.67593 57.7153 3.39859 58.073 3.20884C58.4306 3.01179 58.8356 2.91326 59.2881 2.91326ZM64.1795 0.898943V9H63.4132V0.898943H64.1795ZM68.5313 9.08758C67.9693 9.08758 67.4621 8.96351 67.0096 8.71537C66.5644 8.45993 66.2105 8.10232 65.9477 7.64253C65.6923 7.17544 65.5646 6.63172 65.5646 6.01137C65.5646 5.39102 65.6959 4.85094 65.9587 4.39116C66.2214 3.92407 66.579 3.56645 67.0315 3.31831C67.484 3.06287 67.9912 2.93515 68.5532 2.93515C69.1152 2.93515 69.6224 3.06287 70.0749 3.31831C70.5347 3.56645 70.8923 3.92407 71.1477 4.39116C71.4105 4.85094 71.5418 5.39102 71.5418 6.01137C71.5418 6.62442 71.4105 7.16449 71.1477 7.63158C70.885 8.09867 70.5237 8.45993 70.0639 8.71537C69.6041 8.96351 69.0933 9.08758 68.5313 9.08758ZM68.5313 8.41979C68.9254 8.41979 69.2903 8.33221 69.626 8.15705C69.9618 7.9746 70.2318 7.70456 70.4361 7.34695C70.6478 6.98203 70.7536 6.53684 70.7536 6.01137C70.7536 5.48589 70.6514 5.04435 70.4471 4.68673C70.2427 4.32182 69.9727 4.05179 69.637 3.87663C69.3013 3.69417 68.9363 3.60294 68.5422 3.60294C68.1481 3.60294 67.7832 3.69417 67.4475 3.87663C67.1118 4.05179 66.8417 4.32182 66.6374 4.68673C66.4403 5.04435 66.3418 5.48589 66.3418 6.01137C66.3418 6.53684 66.4403 6.98203 66.6374 7.34695C66.8417 7.70456 67.1081 7.9746 67.4366 8.15705C67.7723 8.33221 68.1372 8.41979 68.5313 8.41979ZM72.5884 6.00042C72.5884 5.38737 72.7088 4.85094 72.9497 4.39116C73.1978 3.92407 73.5372 3.56645 73.9678 3.31831C74.4057 3.06287 74.8983 2.93515 75.4457 2.93515C76.0149 2.93515 76.5039 3.06652 76.9126 3.32926C77.3286 3.592 77.6278 3.92772 77.8103 4.33642V3.02273H78.5766V9H77.8103V7.67537C77.6205 8.08407 77.3177 8.42344 76.9017 8.69347C76.493 8.95621 76.004 9.08758 75.4347 9.08758C74.8947 9.08758 74.4057 8.95986 73.9678 8.70442C73.5372 8.44898 73.1978 8.08772 72.9497 7.62063C72.7088 7.15354 72.5884 6.61347 72.5884 6.00042ZM77.8103 6.01137C77.8103 5.52968 77.7118 5.10638 77.5147 4.74147C77.3177 4.37656 77.0476 4.09558 76.7046 3.89852C76.3689 3.70147 75.9967 3.60294 75.588 3.60294C75.1647 3.60294 74.7852 3.69782 74.4495 3.88758C74.1137 4.07733 73.8474 4.35466 73.6503 4.71958C73.4605 5.07719 73.3657 5.50414 73.3657 6.00042C73.3657 6.4894 73.4605 6.92 73.6503 7.29221C73.8474 7.65712 74.1137 7.9381 74.4495 8.13516C74.7852 8.32491 75.1647 8.41979 75.588 8.41979C75.9967 8.41979 76.3689 8.32126 76.7046 8.12421C77.0476 7.92716 77.3177 7.64617 77.5147 7.28126C77.7118 6.91635 77.8103 6.49305 77.8103 6.01137ZM79.9757 6.00042C79.9757 5.38737 80.0998 4.85094 80.348 4.39116C80.5961 3.92407 80.9355 3.56645 81.3661 3.31831C81.804 3.06287 82.2966 2.93515 82.844 2.93515C83.3694 2.93515 83.8438 3.06287 84.2671 3.31831C84.6904 3.57375 85.0006 3.90582 85.1976 4.31452V0.898943H85.964V9H85.1976V7.66442C85.0152 8.08042 84.716 8.42344 84.3 8.69347C83.884 8.95621 83.395 9.08758 82.833 9.08758C82.2856 9.08758 81.793 8.95986 81.3551 8.70442C80.9245 8.44898 80.5851 8.08772 80.337 7.62063C80.0962 7.15354 79.9757 6.61347 79.9757 6.00042ZM85.1976 6.01137C85.1976 5.52968 85.0991 5.10638 84.9021 4.74147C84.705 4.37656 84.435 4.09558 84.092 3.89852C83.7562 3.70147 83.384 3.60294 82.9753 3.60294C82.552 3.60294 82.1725 3.69782 81.8368 3.88758C81.5011 4.07733 81.2347 4.35466 81.0376 4.71958C80.8479 5.07719 80.753 5.50414 80.753 6.00042C80.753 6.4894 80.8479 6.92 81.0376 7.29221C81.2347 7.65712 81.5011 7.9381 81.8368 8.13516C82.1725 8.32491 82.552 8.41979 82.9753 8.41979C83.384 8.41979 83.7562 8.32126 84.092 8.12421C84.435 7.92716 84.705 7.64617 84.9021 7.28126C85.0991 6.91635 85.1976 6.49305 85.1976 6.01137ZM93.3339 9.08758C92.772 9.08758 92.2647 8.96351 91.8123 8.71537C91.3671 8.45993 91.0131 8.10232 90.7504 7.64253C90.4949 7.17544 90.3672 6.63172 90.3672 6.01137C90.3672 5.39102 90.4986 4.85094 90.7613 4.39116C91.024 3.92407 91.3817 3.56645 91.8341 3.31831C92.2866 3.06287 92.7939 2.93515 93.3558 2.93515C93.9178 2.93515 94.425 3.06287 94.8775 3.31831C95.3373 3.56645 95.6949 3.92407 95.9504 4.39116C96.2131 4.85094 96.3445 5.39102 96.3445 6.01137C96.3445 6.62442 96.2131 7.16449 95.9504 7.63158C95.6876 8.09867 95.3264 8.45993 94.8666 8.71537C94.4068 8.96351 93.8959 9.08758 93.3339 9.08758ZM93.3339 8.41979C93.728 8.41979 94.093 8.33221 94.4287 8.15705C94.7644 7.9746 95.0344 7.70456 95.2388 7.34695C95.4504 6.98203 95.5563 6.53684 95.5563 6.01137C95.5563 5.48589 95.4541 5.04435 95.2497 4.68673C95.0454 4.32182 94.7753 4.05179 94.4396 3.87663C94.1039 3.69417 93.739 3.60294 93.3449 3.60294C92.9508 3.60294 92.5859 3.69417 92.2501 3.87663C91.9144 4.05179 91.6444 4.32182 91.44 4.68673C91.243 5.04435 91.1445 5.48589 91.1445 6.01137C91.1445 6.53684 91.243 6.98203 91.44 7.34695C91.6444 7.70456 91.9108 7.9746 92.2392 8.15705C92.5749 8.33221 92.9398 8.41979 93.3339 8.41979ZM100.544 2.91326C101.259 2.91326 101.843 3.13586 102.295 3.58105C102.748 4.01894 102.974 4.65754 102.974 5.49684V9H102.219V5.58442C102.219 4.93487 102.055 4.43859 101.726 4.09558C101.405 3.75256 100.964 3.58105 100.402 3.58105C99.825 3.58105 99.3652 3.76351 99.0222 4.12842C98.6792 4.49333 98.5077 5.02975 98.5077 5.73768V9H97.7414V3.02273H98.5077V4.04084C98.6974 3.67593 98.9711 3.39859 99.3287 3.20884C99.6864 3.01179 100.091 2.91326 100.544 2.91326ZM108.669 3.66863V7.37979C108.669 7.7447 108.739 7.99649 108.877 8.13516C109.016 8.27382 109.26 8.34316 109.611 8.34316H110.311V9H109.49C108.95 9 108.549 8.87593 108.286 8.62779C108.023 8.37235 107.892 7.95635 107.892 7.37979V3.66863H107.06V3.02273H107.892V1.52294H108.669V3.02273H110.311V3.66863H108.669ZM114.422 2.91326C114.874 2.91326 115.279 3.00814 115.637 3.19789C116.002 3.38765 116.286 3.67958 116.491 4.07368C116.702 4.46049 116.808 4.93487 116.808 5.49684V9H116.053V5.58442C116.053 4.93487 115.889 4.43859 115.56 4.09558C115.239 3.75256 114.797 3.58105 114.235 3.58105C113.659 3.58105 113.199 3.76351 112.856 4.12842C112.513 4.49333 112.342 5.02975 112.342 5.73768V9H111.575V0.898943H112.342V4.04084C112.531 3.68322 112.809 3.40589 113.174 3.20884C113.546 3.01179 113.962 2.91326 114.422 2.91326ZM123.911 5.70484C123.911 5.96758 123.904 6.16828 123.889 6.30695H118.93C118.952 6.75944 119.061 7.14624 119.258 7.46737C119.455 7.78849 119.714 8.03298 120.036 8.20084C120.357 8.3614 120.707 8.44168 121.086 8.44168C121.583 8.44168 121.999 8.32126 122.334 8.08042C122.677 7.83958 122.904 7.51481 123.013 7.1061H123.823C123.677 7.68996 123.364 8.168 122.882 8.54021C122.407 8.90512 121.809 9.08758 121.086 9.08758C120.525 9.08758 120.021 8.96351 119.576 8.71537C119.131 8.45993 118.78 8.10232 118.525 7.64253C118.277 7.17544 118.153 6.63172 118.153 6.01137C118.153 5.39102 118.277 4.8473 118.525 4.38021C118.773 3.91312 119.12 3.55551 119.565 3.30736C120.01 3.05922 120.517 2.93515 121.086 2.93515C121.656 2.93515 122.152 3.05922 122.575 3.30736C123.006 3.55551 123.334 3.89122 123.561 4.31452C123.794 4.73052 123.911 5.19396 123.911 5.70484ZM123.134 5.68295C123.141 5.23775 123.05 4.85824 122.86 4.54442C122.677 4.23059 122.426 3.9934 122.105 3.83284C121.783 3.67228 121.433 3.592 121.054 3.592C120.484 3.592 119.999 3.77445 119.598 4.13937C119.196 4.50428 118.974 5.0188 118.93 5.68295H123.134Z" fill="white"/>
</svg>
