<svg width="24" height="31" viewBox="0 0 24 31" fill="none" xmlns="http://www.w3.org/2000/svg">
<path d="M20.0476 16.5011C20.0093 12.5877 23.1046 10.678 23.2453 10.5838C21.493 7.90763 18.7941 7.54452 17.8348 7.50418C15.558 7.24866 13.358 8.9297 12.194 8.9297C11.0301 8.9297 9.22655 7.51762 7.30792 7.55797C4.83928 7.59832 2.52413 9.10453 1.24504 11.4445C-1.37708 16.2187 0.579922 23.2253 3.08693 27.0715C4.34044 28.9543 5.81139 31.0657 7.73002 30.9984C9.61028 30.9177 10.3138 29.7343 12.5778 29.7343C14.8417 29.7343 15.4813 30.9984 17.4383 30.9446C19.4592 30.9177 20.7255 29.0484 21.9407 27.1388C23.386 24.9736 23.9744 22.8487 24 22.7411C23.9488 22.7277 20.086 21.1677 20.0476 16.4742V16.5011ZM16.3511 4.97589C17.3615 3.6445 18.0522 1.84242 17.8604 0C16.4022 0.0672417 14.5731 1.06242 13.5115 2.36691C12.5778 3.51002 11.7463 5.39279 11.9638 7.15452C13.601 7.289 15.2894 6.28038 16.3511 4.97589Z" fill="white"/>
</svg>
