<svg width="140" height="38" viewBox="0 0 140 38" fill="none" xmlns="http://www.w3.org/2000/svg">
<path d="M20.0476 17.5011C20.0093 13.5877 23.1046 11.678 23.2453 11.5838C21.493 8.90763 18.7941 8.54452 17.8348 8.50418C15.558 8.24866 13.358 9.9297 12.194 9.9297C11.0301 9.9297 9.22655 8.51762 7.30792 8.55797C4.83928 8.59832 2.52413 10.1045 1.24504 12.4445C-1.37708 17.2187 0.579922 24.2253 3.08693 28.0715C4.34044 29.9543 5.81139 32.0657 7.73002 31.9984C9.61028 31.9177 10.3138 30.7343 12.5778 30.7343C14.8417 30.7343 15.4813 31.9984 17.4383 31.9446C19.4592 31.9177 20.7255 30.0484 21.9407 28.1388C23.386 25.9736 23.9744 23.8487 24 23.7411C23.9488 23.7277 20.086 22.1677 20.0476 17.4742V17.5011ZM16.3511 5.97589C17.3615 4.6445 18.0522 2.84242 17.8604 1C16.4022 1.06724 14.5731 2.06242 13.5115 3.36691C12.5778 4.51002 11.7463 6.39279 11.9638 8.15452C13.601 8.289 15.2894 7.28038 16.3511 5.97589Z" fill="white"/>
<path d="M42.758 28.6669H36.07L34.838 32.0769H32.726L38.27 16.8309H40.58L46.102 32.0769H43.99L42.758 28.6669ZM42.186 27.0389L39.414 19.2949L36.642 27.0389H42.186ZM50.5202 22.2429C50.9162 21.5536 51.5029 20.9816 52.2802 20.5269C53.0722 20.0576 53.9889 19.8229 55.0302 19.8229C56.1009 19.8229 57.0689 20.0796 57.9342 20.5929C58.8142 21.1062 59.5036 21.8322 60.0022 22.7709C60.5009 23.6949 60.7502 24.7729 60.7502 26.0049C60.7502 27.2222 60.5009 28.3076 60.0022 29.2609C59.5036 30.2142 58.8142 30.9549 57.9342 31.4829C57.0689 32.0109 56.1009 32.2749 55.0302 32.2749C54.0036 32.2749 53.0942 32.0476 52.3022 31.5929C51.5249 31.1236 50.9309 30.5442 50.5202 29.8549V37.7969H48.5182V20.0209H50.5202V22.2429ZM58.7042 26.0049C58.7042 25.0956 58.5209 24.3036 58.1542 23.6289C57.7876 22.9542 57.2889 22.4409 56.6582 22.0889C56.0422 21.7369 55.3602 21.5609 54.6122 21.5609C53.8789 21.5609 53.1969 21.7442 52.5662 22.1109C51.9502 22.4629 51.4516 22.9836 51.0702 23.6729C50.7036 24.3476 50.5202 25.1322 50.5202 26.0269C50.5202 26.9362 50.7036 27.7356 51.0702 28.4249C51.4516 29.0996 51.9502 29.6202 52.5662 29.9869C53.1969 30.3389 53.8789 30.5149 54.6122 30.5149C55.3602 30.5149 56.0422 30.3389 56.6582 29.9869C57.2889 29.6202 57.7876 29.0996 58.1542 28.4249C58.5209 27.7356 58.7042 26.9289 58.7042 26.0049ZM65.3874 22.2429C65.7834 21.5536 66.3701 20.9816 67.1474 20.5269C67.9394 20.0576 68.8561 19.8229 69.8974 19.8229C70.9681 19.8229 71.9361 20.0796 72.8014 20.5929C73.6814 21.1062 74.3707 21.8322 74.8694 22.7709C75.3681 23.6949 75.6174 24.7729 75.6174 26.0049C75.6174 27.2222 75.3681 28.3076 74.8694 29.2609C74.3707 30.2142 73.6814 30.9549 72.8014 31.4829C71.9361 32.0109 70.9681 32.2749 69.8974 32.2749C68.8707 32.2749 67.9614 32.0476 67.1694 31.5929C66.3921 31.1236 65.7981 30.5442 65.3874 29.8549V37.7969H63.3854V20.0209H65.3874V22.2429ZM73.5714 26.0049C73.5714 25.0956 73.3881 24.3036 73.0214 23.6289C72.6547 22.9542 72.1561 22.4409 71.5254 22.0889C70.9094 21.7369 70.2274 21.5609 69.4794 21.5609C68.7461 21.5609 68.0641 21.7442 67.4334 22.1109C66.8174 22.4629 66.3187 22.9836 65.9374 23.6729C65.5707 24.3476 65.3874 25.1322 65.3874 26.0269C65.3874 26.9362 65.5707 27.7356 65.9374 28.4249C66.3187 29.0996 66.8174 29.6202 67.4334 29.9869C68.0641 30.3389 68.7461 30.5149 69.4794 30.5149C70.2274 30.5149 70.9094 30.3389 71.5254 29.9869C72.1561 29.6202 72.6547 29.0996 73.0214 28.4249C73.3881 27.7356 73.5714 26.9289 73.5714 26.0049ZM88.9798 32.2309C87.9678 32.2309 87.0585 32.0549 86.2518 31.7029C85.4598 31.3362 84.8365 30.8376 84.3818 30.2069C83.9272 29.5616 83.6925 28.8209 83.6778 27.9849H85.8118C85.8852 28.7036 86.1785 29.3122 86.6918 29.8109C87.2198 30.2949 87.9825 30.5369 88.9798 30.5369C89.9332 30.5369 90.6812 30.3022 91.2238 29.8329C91.7812 29.3489 92.0598 28.7329 92.0598 27.9849C92.0598 27.3982 91.8985 26.9216 91.5758 26.5549C91.2532 26.1882 90.8498 25.9096 90.3658 25.7189C89.8818 25.5282 89.2292 25.3229 88.4078 25.1029C87.3958 24.8389 86.5818 24.5749 85.9658 24.3109C85.3645 24.0469 84.8438 23.6362 84.4038 23.0789C83.9785 22.5069 83.7658 21.7442 83.7658 20.7909C83.7658 19.9549 83.9785 19.2142 84.4038 18.5689C84.8292 17.9236 85.4232 17.4249 86.1858 17.0729C86.9632 16.7209 87.8505 16.5449 88.8478 16.5449C90.2852 16.5449 91.4585 16.9042 92.3678 17.6229C93.2918 18.3416 93.8125 19.2949 93.9298 20.4829H91.7298C91.6565 19.8962 91.3485 19.3829 90.8058 18.9429C90.2632 18.4882 89.5445 18.2609 88.6498 18.2609C87.8138 18.2609 87.1318 18.4809 86.6038 18.9209C86.0758 19.3462 85.8118 19.9476 85.8118 20.7249C85.8118 21.2822 85.9658 21.7369 86.2738 22.0889C86.5965 22.4409 86.9852 22.7122 87.4398 22.9029C87.9092 23.0789 88.5618 23.2842 89.3978 23.5189C90.4098 23.7976 91.2238 24.0762 91.8398 24.3549C92.4558 24.6189 92.9838 25.0369 93.4238 25.6089C93.8638 26.1662 94.0838 26.9289 94.0838 27.8969C94.0838 28.6449 93.8858 29.3489 93.4898 30.0089C93.0938 30.6689 92.5072 31.2042 91.7298 31.6149C90.9525 32.0256 90.0358 32.2309 88.9798 32.2309ZM99.4719 21.6709V28.7769C99.4719 29.3636 99.5966 29.7816 99.8459 30.0309C100.095 30.2656 100.528 30.3829 101.144 30.3829H102.618V32.0769H100.814C99.6993 32.0769 98.8633 31.8202 98.3059 31.3069C97.7486 30.7936 97.4699 29.9502 97.4699 28.7769V21.6709H95.9079V20.0209H97.4699V16.9849H99.4719V20.0209H102.618V21.6709H99.4719ZM110.302 32.2749C109.172 32.2749 108.146 32.0182 107.222 31.5049C106.312 30.9916 105.594 30.2656 105.066 29.3269C104.552 28.3736 104.296 27.2736 104.296 26.0269C104.296 24.7949 104.56 23.7096 105.088 22.7709C105.63 21.8176 106.364 21.0916 107.288 20.5929C108.212 20.0796 109.246 19.8229 110.39 19.8229C111.534 19.8229 112.568 20.0796 113.492 20.5929C114.416 21.0916 115.142 21.8102 115.67 22.7489C116.212 23.6876 116.484 24.7802 116.484 26.0269C116.484 27.2736 116.205 28.3736 115.648 29.3269C115.105 30.2656 114.364 30.9916 113.426 31.5049C112.487 32.0182 111.446 32.2749 110.302 32.2749ZM110.302 30.5149C111.02 30.5149 111.695 30.3462 112.326 30.0089C112.956 29.6716 113.462 29.1656 113.844 28.4909C114.24 27.8162 114.438 26.9949 114.438 26.0269C114.438 25.0589 114.247 24.2376 113.866 23.5629C113.484 22.8882 112.986 22.3896 112.37 22.0669C111.754 21.7296 111.086 21.5609 110.368 21.5609C109.634 21.5609 108.96 21.7296 108.344 22.0669C107.742 22.3896 107.258 22.8882 106.892 23.5629C106.525 24.2376 106.342 25.0589 106.342 26.0269C106.342 27.0096 106.518 27.8382 106.87 28.5129C107.236 29.1876 107.72 29.6936 108.322 30.0309C108.923 30.3536 109.583 30.5149 110.302 30.5149ZM121.118 21.9789C121.47 21.2896 121.969 20.7542 122.614 20.3729C123.274 19.9916 124.073 19.8009 125.012 19.8009V21.8689H124.484C122.24 21.8689 121.118 23.0862 121.118 25.5209V32.0769H119.116V20.0209H121.118V21.9789ZM138.323 25.5869C138.323 25.9682 138.301 26.3716 138.257 26.7969H128.621C128.694 27.9849 129.098 28.9162 129.831 29.5909C130.579 30.2509 131.481 30.5809 132.537 30.5809C133.402 30.5809 134.121 30.3829 134.693 29.9869C135.28 29.5762 135.69 29.0336 135.925 28.3589H138.081C137.758 29.5176 137.113 30.4636 136.145 31.1969C135.177 31.9156 133.974 32.2749 132.537 32.2749C131.393 32.2749 130.366 32.0182 129.457 31.5049C128.562 30.9916 127.858 30.2656 127.345 29.3269C126.832 28.3736 126.575 27.2736 126.575 26.0269C126.575 24.7802 126.824 23.6876 127.323 22.7489C127.822 21.8102 128.518 21.0916 129.413 20.5929C130.322 20.0796 131.364 19.8229 132.537 19.8229C133.681 19.8229 134.693 20.0722 135.573 20.5709C136.453 21.0696 137.128 21.7589 137.597 22.6389C138.081 23.5042 138.323 24.4869 138.323 25.5869ZM136.255 25.1689C136.255 24.4062 136.086 23.7536 135.749 23.2109C135.412 22.6536 134.95 22.2356 134.363 21.9569C133.791 21.6636 133.153 21.5169 132.449 21.5169C131.437 21.5169 130.572 21.8396 129.853 22.4849C129.149 23.1302 128.746 24.0249 128.643 25.1689H136.255Z" fill="white"/>
<path d="M38.444 1.612C39.372 1.612 40.168 1.78 40.832 2.116C41.496 2.452 42.004 2.936 42.356 3.568C42.708 4.2 42.884 4.952 42.884 5.824C42.884 6.688 42.708 7.436 42.356 8.068C42.004 8.692 41.496 9.172 40.832 9.508C40.168 9.836 39.372 10 38.444 10H35.96V1.612H38.444ZM38.444 9.304C39.612 9.304 40.5 9 41.108 8.392C41.724 7.776 42.032 6.92 42.032 5.824C42.032 4.72 41.724 3.86 41.108 3.244C40.5 2.62 39.612 2.308 38.444 2.308H36.8V9.304H38.444ZM47.3007 10.096C46.6847 10.096 46.1287 9.96 45.6327 9.688C45.1447 9.408 44.7567 9.016 44.4687 8.512C44.1887 8 44.0487 7.404 44.0487 6.724C44.0487 6.044 44.1927 5.452 44.4807 4.948C44.7687 4.436 45.1607 4.044 45.6567 3.772C46.1527 3.492 46.7087 3.352 47.3247 3.352C47.9407 3.352 48.4967 3.492 48.9927 3.772C49.4967 4.044 49.8887 4.436 50.1687 4.948C50.4567 5.452 50.6007 6.044 50.6007 6.724C50.6007 7.396 50.4567 7.988 50.1687 8.5C49.8807 9.012 49.4847 9.408 48.9807 9.688C48.4767 9.96 47.9167 10.096 47.3007 10.096ZM47.3007 9.364C47.7327 9.364 48.1327 9.268 48.5007 9.076C48.8687 8.876 49.1647 8.58 49.3887 8.188C49.6207 7.788 49.7367 7.3 49.7367 6.724C49.7367 6.148 49.6247 5.664 49.4007 5.272C49.1767 4.872 48.8807 4.576 48.5127 4.384C48.1447 4.184 47.7447 4.084 47.3127 4.084C46.8807 4.084 46.4807 4.184 46.1127 4.384C45.7447 4.576 45.4487 4.872 45.2247 5.272C45.0087 5.664 44.9007 6.148 44.9007 6.724C44.9007 7.3 45.0087 7.788 45.2247 8.188C45.4487 8.58 45.7407 8.876 46.1007 9.076C46.4687 9.268 46.8687 9.364 47.3007 9.364ZM60.7719 3.448L58.7199 10H57.8799L56.0679 4.504L54.2559 10H53.4039L51.3519 3.448H52.2039L53.8359 9.148L55.6719 3.448H56.5119L58.3239 9.16L59.9439 3.448H60.7719ZM64.989 3.328C65.773 3.328 66.413 3.572 66.909 4.06C67.405 4.54 67.653 5.24 67.653 6.16V10H66.825V6.256C66.825 5.544 66.645 5 66.285 4.624C65.933 4.248 65.449 4.06 64.833 4.06C64.201 4.06 63.697 4.26 63.321 4.66C62.945 5.06 62.757 5.648 62.757 6.424V10H61.917V3.448H62.757V4.564C62.965 4.164 63.265 3.86 63.657 3.652C64.049 3.436 64.493 3.328 64.989 3.328ZM70.3508 1.12V10H69.5108V1.12H70.3508ZM75.121 10.096C74.505 10.096 73.949 9.96 73.453 9.688C72.965 9.408 72.577 9.016 72.289 8.512C72.009 8 71.869 7.404 71.869 6.724C71.869 6.044 72.013 5.452 72.301 4.948C72.589 4.436 72.981 4.044 73.477 3.772C73.973 3.492 74.529 3.352 75.145 3.352C75.761 3.352 76.317 3.492 76.813 3.772C77.317 4.044 77.709 4.436 77.989 4.948C78.277 5.452 78.421 6.044 78.421 6.724C78.421 7.396 78.277 7.988 77.989 8.5C77.701 9.012 77.305 9.408 76.801 9.688C76.297 9.96 75.737 10.096 75.121 10.096ZM75.121 9.364C75.553 9.364 75.953 9.268 76.321 9.076C76.689 8.876 76.985 8.58 77.209 8.188C77.441 7.788 77.557 7.3 77.557 6.724C77.557 6.148 77.445 5.664 77.221 5.272C76.997 4.872 76.701 4.576 76.333 4.384C75.965 4.184 75.565 4.084 75.133 4.084C74.701 4.084 74.301 4.184 73.933 4.384C73.565 4.576 73.269 4.872 73.045 5.272C72.829 5.664 72.721 6.148 72.721 6.724C72.721 7.3 72.829 7.788 73.045 8.188C73.269 8.58 73.561 8.876 73.921 9.076C74.289 9.268 74.689 9.364 75.121 9.364ZM79.5682 6.712C79.5682 6.04 79.7002 5.452 79.9642 4.948C80.2362 4.436 80.6082 4.044 81.0802 3.772C81.5602 3.492 82.1002 3.352 82.7002 3.352C83.3242 3.352 83.8602 3.496 84.3082 3.784C84.7642 4.072 85.0922 4.44 85.2922 4.888V3.448H86.1322V10H85.2922V8.548C85.0842 8.996 84.7522 9.368 84.2962 9.664C83.8482 9.952 83.3122 10.096 82.6882 10.096C82.0962 10.096 81.5602 9.956 81.0802 9.676C80.6082 9.396 80.2362 9 79.9642 8.488C79.7002 7.976 79.5682 7.384 79.5682 6.712ZM85.2922 6.724C85.2922 6.196 85.1842 5.732 84.9682 5.332C84.7522 4.932 84.4562 4.624 84.0802 4.408C83.7122 4.192 83.3042 4.084 82.8562 4.084C82.3922 4.084 81.9762 4.188 81.6082 4.396C81.2402 4.604 80.9482 4.908 80.7322 5.308C80.5242 5.7 80.4202 6.168 80.4202 6.712C80.4202 7.248 80.5242 7.72 80.7322 8.128C80.9482 8.528 81.2402 8.836 81.6082 9.052C81.9762 9.26 82.3922 9.364 82.8562 9.364C83.3042 9.364 83.7122 9.256 84.0802 9.04C84.4562 8.824 84.7522 8.516 84.9682 8.116C85.1842 7.716 85.2922 7.252 85.2922 6.724ZM87.6658 6.712C87.6658 6.04 87.8018 5.452 88.0738 4.948C88.3458 4.436 88.7178 4.044 89.1898 3.772C89.6698 3.492 90.2098 3.352 90.8098 3.352C91.3858 3.352 91.9058 3.492 92.3698 3.772C92.8338 4.052 93.1738 4.416 93.3898 4.864V1.12H94.2298V10H93.3898V8.536C93.1898 8.992 92.8618 9.368 92.4058 9.664C91.9498 9.952 91.4138 10.096 90.7978 10.096C90.1978 10.096 89.6578 9.956 89.1778 9.676C88.7058 9.396 88.3338 9 88.0618 8.488C87.7978 7.976 87.6658 7.384 87.6658 6.712ZM93.3898 6.724C93.3898 6.196 93.2818 5.732 93.0658 5.332C92.8498 4.932 92.5538 4.624 92.1778 4.408C91.8098 4.192 91.4018 4.084 90.9538 4.084C90.4898 4.084 90.0738 4.188 89.7058 4.396C89.3378 4.604 89.0458 4.908 88.8298 5.308C88.6218 5.7 88.5178 6.168 88.5178 6.712C88.5178 7.248 88.6218 7.72 88.8298 8.128C89.0458 8.528 89.3378 8.836 89.7058 9.052C90.0738 9.26 90.4898 9.364 90.9538 9.364C91.4018 9.364 91.8098 9.256 92.1778 9.04C92.5538 8.824 92.8498 8.516 93.0658 8.116C93.2818 7.716 93.3898 7.252 93.3898 6.724ZM102.308 10.096C101.692 10.096 101.136 9.96 100.64 9.688C100.152 9.408 99.7645 9.016 99.4765 8.512C99.1965 8 99.0565 7.404 99.0565 6.724C99.0565 6.044 99.2005 5.452 99.4885 4.948C99.7765 4.436 100.168 4.044 100.664 3.772C101.16 3.492 101.716 3.352 102.332 3.352C102.948 3.352 103.504 3.492 104 3.772C104.504 4.044 104.896 4.436 105.176 4.948C105.464 5.452 105.608 6.044 105.608 6.724C105.608 7.396 105.464 7.988 105.176 8.5C104.888 9.012 104.492 9.408 103.988 9.688C103.484 9.96 102.924 10.096 102.308 10.096ZM102.308 9.364C102.74 9.364 103.14 9.268 103.508 9.076C103.876 8.876 104.172 8.58 104.396 8.188C104.628 7.788 104.744 7.3 104.744 6.724C104.744 6.148 104.632 5.664 104.408 5.272C104.184 4.872 103.888 4.576 103.52 4.384C103.152 4.184 102.752 4.084 102.32 4.084C101.888 4.084 101.488 4.184 101.12 4.384C100.752 4.576 100.456 4.872 100.232 5.272C100.016 5.664 99.9085 6.148 99.9085 6.724C99.9085 7.3 100.016 7.788 100.232 8.188C100.456 8.58 100.748 8.876 101.108 9.076C101.476 9.268 101.876 9.364 102.308 9.364ZM110.212 3.328C110.996 3.328 111.636 3.572 112.132 4.06C112.628 4.54 112.876 5.24 112.876 6.16V10H112.048V6.256C112.048 5.544 111.868 5 111.508 4.624C111.156 4.248 110.672 4.06 110.056 4.06C109.424 4.06 108.92 4.26 108.544 4.66C108.168 5.06 107.98 5.648 107.98 6.424V10H107.14V3.448H107.98V4.564C108.188 4.164 108.488 3.86 108.88 3.652C109.272 3.436 109.716 3.328 110.212 3.328ZM119.118 4.156V8.224C119.118 8.624 119.194 8.9 119.346 9.052C119.498 9.204 119.766 9.28 120.15 9.28H120.918V10H120.018C119.426 10 118.986 9.864 118.698 9.592C118.41 9.312 118.266 8.856 118.266 8.224V4.156H117.354V3.448H118.266V1.804H119.118V3.448H120.918V4.156H119.118ZM125.424 3.328C125.92 3.328 126.364 3.432 126.756 3.64C127.156 3.848 127.468 4.168 127.692 4.6C127.924 5.024 128.04 5.544 128.04 6.16V10H127.212V6.256C127.212 5.544 127.032 5 126.672 4.624C126.32 4.248 125.836 4.06 125.22 4.06C124.588 4.06 124.084 4.26 123.708 4.66C123.332 5.06 123.144 5.648 123.144 6.424V10H122.304V1.12H123.144V4.564C123.352 4.172 123.656 3.868 124.056 3.652C124.464 3.436 124.92 3.328 125.424 3.328ZM135.826 6.388C135.826 6.676 135.818 6.896 135.802 7.048H130.366C130.39 7.544 130.51 7.968 130.726 8.32C130.942 8.672 131.226 8.94 131.578 9.124C131.93 9.3 132.314 9.388 132.73 9.388C133.274 9.388 133.73 9.256 134.098 8.992C134.474 8.728 134.722 8.372 134.842 7.924H135.73C135.57 8.564 135.226 9.088 134.698 9.496C134.178 9.896 133.522 10.096 132.73 10.096C132.114 10.096 131.562 9.96 131.074 9.688C130.586 9.408 130.202 9.016 129.922 8.512C129.65 8 129.514 7.404 129.514 6.724C129.514 6.044 129.65 5.448 129.922 4.936C130.194 4.424 130.574 4.032 131.062 3.76C131.55 3.488 132.106 3.352 132.73 3.352C133.354 3.352 133.898 3.488 134.362 3.76C134.834 4.032 135.194 4.4 135.442 4.864C135.698 5.32 135.826 5.828 135.826 6.388ZM134.974 6.364C134.982 5.876 134.882 5.46 134.674 5.116C134.474 4.772 134.198 4.512 133.846 4.336C133.494 4.16 133.11 4.072 132.694 4.072C132.07 4.072 131.538 4.272 131.098 4.672C130.658 5.072 130.414 5.636 130.366 6.364H134.974Z" fill="white"/>
</svg>
