<svg width="202" height="60" viewBox="0 0 202 60" fill="none" xmlns="http://www.w3.org/2000/svg">
<rect width="202" height="60" rx="8" fill="#03031A"/>
<path d="M167.561 33.0806L165.081 39.7641H165.013L162.425 33.0806H160.094L163.97 42.4375L161.761 47.6405H164.037L170 33.0806H167.574H167.561ZM150.052 27.5325H147.884V42.9549H150.052V27.5325ZM141.908 27.5325H136.704V42.9549H138.886V37.1194H141.921C144.469 37.2057 146.61 35.0928 146.691 32.3907C146.691 32.3619 146.691 32.3475 146.691 32.3188C146.637 29.6167 144.523 27.4607 141.975 27.5182C141.948 27.5182 141.935 27.5182 141.908 27.5182V27.5325ZM141.962 34.9635H138.886V29.7029H141.975C143.344 29.7029 144.455 30.8815 144.455 32.3332C144.455 33.7849 143.344 34.9635 141.975 34.9635H141.962ZM155.378 32.75C153.765 32.6494 152.234 33.5836 151.502 35.1072L153.44 35.9839C153.833 35.2222 154.605 34.791 155.418 34.8628C156.557 34.7479 157.587 35.6246 157.695 36.832V36.9901C157.004 36.5876 156.232 36.3864 155.446 36.3864C153.372 36.3864 151.258 37.5937 151.258 39.8934C151.258 41.9632 152.952 43.2855 154.863 43.2855C155.974 43.3574 157.031 42.7824 157.614 41.7763H157.695V42.9693H159.809V37.0332C159.809 34.2879 157.871 32.7644 155.378 32.7644V32.7212V32.75ZM155.12 41.2158C154.416 41.2158 153.413 40.8277 153.413 39.9078C153.413 38.7148 154.646 38.2549 155.717 38.2549C156.408 38.2405 157.099 38.413 157.695 38.7723C157.533 40.1521 156.421 41.2014 155.107 41.2158H155.12ZM76.8328 43.2999C72.5641 43.3142 69.0678 39.6778 69 35.1503C69.0678 30.6228 72.5641 26.9864 76.8328 27.0007C78.8113 26.972 80.7221 27.7769 82.1315 29.2573L80.6408 30.824C79.6244 29.7748 78.2557 29.1855 76.8464 29.1998C73.7566 29.1998 71.2631 31.8589 71.2631 35.1216C71.2631 38.3843 73.7702 41.0433 76.8464 41.0433C78.3099 41.1008 79.7193 40.5115 80.7492 39.4047C81.4268 38.643 81.8198 37.6512 81.9011 36.602H76.8599V34.446H83.961C84.0423 34.906 84.0694 35.3659 84.0694 35.8402C84.1371 37.7806 83.4867 39.6635 82.2399 41.1008C80.8305 42.6243 78.8656 43.4292 76.8599 43.3142L76.8328 43.2999ZM95.0191 38.0393C95.1275 40.9139 93.027 43.3286 90.3167 43.4436C87.6063 43.5586 85.3297 41.3307 85.2213 38.4561C85.2213 38.3124 85.2213 38.1687 85.2213 38.0249C85.1128 35.1503 87.2133 32.7356 89.9237 32.6206C92.634 32.5057 94.9106 34.7335 95.0191 37.6081C95.0191 37.7518 95.0191 37.8956 95.0191 38.0393ZM92.8779 38.0393C93.027 36.4295 91.9022 34.9922 90.3844 34.8485C88.8666 34.6904 87.5115 35.8833 87.376 37.4931C87.3624 37.68 87.3624 37.8668 87.376 38.0537C87.2269 39.6635 88.3517 41.1008 89.8695 41.2445C91.3872 41.4026 92.7424 40.2096 92.8779 38.5999C92.8915 38.413 92.8915 38.2262 92.8779 38.0393ZM106.009 38.0393C106.009 40.9139 103.814 43.228 101.117 43.228C98.4205 43.228 96.2251 40.8996 96.2251 38.0393C96.2251 35.179 98.4205 32.8506 101.117 32.8506C103.814 32.8506 106.009 35.179 106.009 38.0393ZM103.868 38.0393C104.017 36.4295 102.893 34.9922 101.375 34.8485C99.857 34.6904 98.5018 35.8833 98.3663 37.4931C98.3527 37.68 98.3527 37.8668 98.3663 38.0537C98.2172 39.6635 99.342 41.1008 100.86 41.2445C102.378 41.4026 103.733 40.2096 103.868 38.5999C103.882 38.413 103.882 38.2262 103.868 38.0393ZM116.729 33.1093V42.5381C116.729 46.4045 114.56 47.9999 111.999 47.9999C110.075 48.0142 108.34 46.8069 107.595 44.9384L109.465 44.0616C109.858 45.154 110.834 45.887 111.945 45.9301C113.598 45.9301 114.601 44.8522 114.601 42.8543V42.1069H114.52C113.869 42.883 112.921 43.3142 111.945 43.2999C109.208 43.2999 106.985 40.9427 106.985 38.0393C106.985 35.1359 109.208 32.7787 111.945 32.7787C112.934 32.75 113.883 33.1812 114.56 33.9573H114.642V33.0806H116.742V33.1093H116.729ZM114.804 38.068C114.926 36.4295 113.788 35.0066 112.243 34.8628C112.216 34.8628 112.189 34.8628 112.162 34.8628C110.576 34.9203 109.33 36.3289 109.384 38.0106C109.384 38.0249 109.384 38.0537 109.384 38.068C109.316 39.7353 110.522 41.1439 112.094 41.2301C112.121 41.2301 112.135 41.2301 112.162 41.2301C113.693 41.1726 114.872 39.8072 114.818 38.183C114.818 38.1399 114.818 38.1112 114.818 38.068H114.804ZM120.55 27.5469V42.9693H118.368V27.5469H120.55ZM129.142 39.7784L130.849 40.9714C129.928 42.4375 128.383 43.2999 126.716 43.2999C124.074 43.343 121.892 41.1008 121.851 38.2836C121.851 38.1974 121.851 38.1255 121.851 38.0393C121.634 35.3803 123.491 33.0375 125.998 32.8075C128.112 32.6063 130.077 33.9861 130.727 36.1277L130.944 36.7313L124.345 39.6347C124.765 40.6408 125.727 41.2733 126.757 41.2301C127.733 41.2158 128.641 40.6696 129.142 39.7784ZM123.938 37.8812L128.383 35.9408C128.031 35.2078 127.299 34.7766 126.54 34.8341C125.036 34.906 123.884 36.2427 123.952 37.8381C123.952 37.8525 123.952 37.8668 123.952 37.8956L123.938 37.8812Z" fill="white"/>
<path d="M76.26 15.06C76.028 14.572 75.692 14.196 75.252 13.932C74.812 13.66 74.3 13.524 73.716 13.524C73.132 13.524 72.604 13.66 72.132 13.932C71.668 14.196 71.3 14.58 71.028 15.084C70.764 15.58 70.632 16.156 70.632 16.812C70.632 17.468 70.764 18.044 71.028 18.54C71.3 19.036 71.668 19.42 72.132 19.692C72.604 19.956 73.132 20.088 73.716 20.088C74.532 20.088 75.204 19.844 75.732 19.356C76.26 18.868 76.568 18.208 76.656 17.376H73.32V16.488H77.82V17.328C77.756 18.016 77.54 18.648 77.172 19.224C76.804 19.792 76.32 20.244 75.72 20.58C75.12 20.908 74.452 21.072 73.716 21.072C72.94 21.072 72.232 20.892 71.592 20.532C70.952 20.164 70.444 19.656 70.068 19.008C69.7 18.36 69.516 17.628 69.516 16.812C69.516 15.996 69.7 15.264 70.068 14.616C70.444 13.96 70.952 13.452 71.592 13.092C72.232 12.724 72.94 12.54 73.716 12.54C74.604 12.54 75.388 12.76 76.068 13.2C76.756 13.64 77.256 14.26 77.568 15.06H76.26ZM85.2638 17.46C85.2638 17.668 85.2518 17.888 85.2278 18.12H79.9718C80.0118 18.768 80.2318 19.276 80.6318 19.644C81.0398 20.004 81.5318 20.184 82.1078 20.184C82.5798 20.184 82.9718 20.076 83.2838 19.86C83.6038 19.636 83.8278 19.34 83.9558 18.972H85.1318C84.9558 19.604 84.6038 20.12 84.0758 20.52C83.5478 20.912 82.8918 21.108 82.1078 21.108C81.4838 21.108 80.9238 20.968 80.4278 20.688C79.9398 20.408 79.5558 20.012 79.2758 19.5C78.9958 18.98 78.8558 18.38 78.8558 17.7C78.8558 17.02 78.9918 16.424 79.2638 15.912C79.5358 15.4 79.9158 15.008 80.4038 14.736C80.8998 14.456 81.4678 14.316 82.1078 14.316C82.7318 14.316 83.2838 14.452 83.7638 14.724C84.2438 14.996 84.6118 15.372 84.8678 15.852C85.1318 16.324 85.2638 16.86 85.2638 17.46ZM84.1358 17.232C84.1358 16.816 84.0438 16.46 83.8598 16.164C83.6758 15.86 83.4238 15.632 83.1038 15.48C82.7918 15.32 82.4438 15.24 82.0598 15.24C81.5078 15.24 81.0358 15.416 80.6438 15.768C80.2598 16.12 80.0398 16.608 79.9838 17.232H84.1358ZM88.0373 15.324V19.2C88.0373 19.52 88.1053 19.748 88.2413 19.884C88.3773 20.012 88.6133 20.076 88.9492 20.076H89.7533V21H88.7693C88.1613 21 87.7053 20.86 87.4013 20.58C87.0973 20.3 86.9453 19.84 86.9453 19.2V15.324H86.0933V14.424H86.9453V12.768H88.0373V14.424H89.7533V15.324H88.0373ZM94.8396 13.356C94.6316 13.356 94.4556 13.284 94.3116 13.14C94.1676 12.996 94.0956 12.82 94.0956 12.612C94.0956 12.404 94.1676 12.228 94.3116 12.084C94.4556 11.94 94.6316 11.868 94.8396 11.868C95.0396 11.868 95.2076 11.94 95.3436 12.084C95.4876 12.228 95.5596 12.404 95.5596 12.612C95.5596 12.82 95.4876 12.996 95.3436 13.14C95.2076 13.284 95.0396 13.356 94.8396 13.356ZM95.3676 14.424V21H94.2756V14.424H95.3676ZM98.5607 15.324V19.2C98.5607 19.52 98.6287 19.748 98.7647 19.884C98.9007 20.012 99.1367 20.076 99.4727 20.076H100.277V21H99.2927C98.6847 21 98.2287 20.86 97.9247 20.58C97.6207 20.3 97.4687 19.84 97.4687 19.2V15.324H96.6167V14.424H97.4687V12.768H98.5607V14.424H100.277V15.324H98.5607ZM107.667 21.108C107.051 21.108 106.491 20.968 105.987 20.688C105.491 20.408 105.099 20.012 104.811 19.5C104.531 18.98 104.391 18.38 104.391 17.7C104.391 17.028 104.535 16.436 104.823 15.924C105.119 15.404 105.519 15.008 106.023 14.736C106.527 14.456 107.091 14.316 107.715 14.316C108.339 14.316 108.903 14.456 109.407 14.736C109.911 15.008 110.307 15.4 110.595 15.912C110.891 16.424 111.039 17.02 111.039 17.7C111.039 18.38 110.887 18.98 110.583 19.5C110.287 20.012 109.883 20.408 109.371 20.688C108.859 20.968 108.291 21.108 107.667 21.108ZM107.667 20.148C108.059 20.148 108.427 20.056 108.771 19.872C109.115 19.688 109.391 19.412 109.599 19.044C109.815 18.676 109.923 18.228 109.923 17.7C109.923 17.172 109.819 16.724 109.611 16.356C109.403 15.988 109.131 15.716 108.795 15.54C108.459 15.356 108.095 15.264 107.703 15.264C107.303 15.264 106.935 15.356 106.599 15.54C106.271 15.716 106.007 15.988 105.807 16.356C105.607 16.724 105.507 17.172 105.507 17.7C105.507 18.236 105.603 18.688 105.795 19.056C105.995 19.424 106.259 19.7 106.587 19.884C106.915 20.06 107.275 20.148 107.667 20.148ZM115.679 14.304C116.479 14.304 117.127 14.548 117.623 15.036C118.119 15.516 118.367 16.212 118.367 17.124V21H117.287V17.28C117.287 16.624 117.123 16.124 116.795 15.78C116.467 15.428 116.019 15.252 115.451 15.252C114.875 15.252 114.415 15.432 114.071 15.792C113.735 16.152 113.567 16.676 113.567 17.364V21H112.475V14.424H113.567V15.36C113.783 15.024 114.075 14.764 114.443 14.58C114.819 14.396 115.231 14.304 115.679 14.304Z" fill="white"/>
<path fill-rule="evenodd" clip-rule="evenodd" d="M32.6532 12.7484L47.228 27.5L32.6532 42.2516C32.5829 42.1793 32.5171 42.1025 32.4563 42.0215C32 41.4129 32 40.3674 32 38.2763V16.7237C32 14.6326 32 13.587 32.4563 12.9786C32.5171 12.8975 32.5829 12.8207 32.6532 12.7484ZM34.4452 12L48.4938 26.2189L52.9267 21.7323L37.8864 13.503C36.1419 12.5485 35.1937 12.0297 34.4452 12ZM54.5699 22.6313L49.7595 27.5L54.5699 32.3687L57.5817 30.7207C59.4927 29.6752 60.4482 29.1524 60.776 28.4736C61.0747 27.8554 61.0747 27.1446 60.776 26.5264C60.4482 25.8477 59.4927 25.3248 57.5817 24.2793L54.5699 22.6313ZM52.9267 33.2677L48.4938 28.7811L34.4452 43C35.1937 42.9703 36.1419 42.4515 37.8863 41.4971L52.9267 33.2677Z" fill="white"/>
</svg>
