<svg width="202" height="60" viewBox="0 0 202 60" fill="none" xmlns="http://www.w3.org/2000/svg">
<rect width="202" height="60" rx="8" fill="#03031A"/>
<path d="M51.0476 28.5011C51.0093 24.5877 54.1046 22.678 54.2453 22.5838C52.493 19.9076 49.7941 19.5445 48.8348 19.5042C46.558 19.2487 44.358 20.9297 43.194 20.9297C42.0301 20.9297 40.2266 19.5176 38.3079 19.558C35.8393 19.5983 33.5241 21.1045 32.245 23.4445C29.6229 28.2187 31.5799 35.2253 34.0869 39.0715C35.3404 40.9543 36.8114 43.0657 38.73 42.9984C40.6103 42.9177 41.3138 41.7343 43.5778 41.7343C45.8417 41.7343 46.4813 42.9984 48.4383 42.9446C50.4592 42.9177 51.7255 41.0484 52.9407 39.1388C54.386 36.9736 54.9744 34.8487 55 34.7411C54.9488 34.7277 51.086 33.1677 51.0476 28.4742V28.5011ZM47.3511 16.9759C48.3615 15.6445 49.0522 13.8424 48.8604 12C47.4022 12.0672 45.5731 13.0624 44.5115 14.3669C43.5778 15.51 42.7463 17.3928 42.9638 19.1545C44.601 19.289 46.2894 18.2804 47.3511 16.9759Z" fill="white"/>
<path d="M73.758 39.6662H67.07L65.838 43.0762H63.726L69.27 27.8302H71.58L77.102 43.0762H74.99L73.758 39.6662ZM73.186 38.0382L70.414 30.2942L67.642 38.0382H73.186ZM81.5202 33.2422C81.9162 32.5528 82.5029 31.9808 83.2802 31.5262C84.0722 31.0568 84.9889 30.8222 86.0302 30.8222C87.1009 30.8222 88.0689 31.0788 88.9342 31.5922C89.8142 32.1055 90.5036 32.8315 91.0022 33.7702C91.5009 34.6942 91.7502 35.7722 91.7502 37.0042C91.7502 38.2215 91.5009 39.3068 91.0022 40.2602C90.5036 41.2135 89.8142 41.9542 88.9342 42.4822C88.0689 43.0102 87.1009 43.2742 86.0302 43.2742C85.0036 43.2742 84.0942 43.0468 83.3022 42.5922C82.5249 42.1228 81.9309 41.5435 81.5202 40.8542V48.7962H79.5182V31.0202H81.5202V33.2422ZM89.7042 37.0042C89.7042 36.0948 89.5209 35.3028 89.1542 34.6282C88.7876 33.9535 88.2889 33.4402 87.6582 33.0882C87.0422 32.7362 86.3602 32.5602 85.6122 32.5602C84.8789 32.5602 84.1969 32.7435 83.5662 33.1102C82.9502 33.4622 82.4516 33.9828 82.0702 34.6722C81.7036 35.3468 81.5202 36.1315 81.5202 37.0262C81.5202 37.9355 81.7036 38.7348 82.0702 39.4242C82.4516 40.0988 82.9502 40.6195 83.5662 40.9862C84.1969 41.3382 84.8789 41.5142 85.6122 41.5142C86.3602 41.5142 87.0422 41.3382 87.6582 40.9862C88.2889 40.6195 88.7876 40.0988 89.1542 39.4242C89.5209 38.7348 89.7042 37.9282 89.7042 37.0042ZM96.3874 33.2422C96.7834 32.5528 97.3701 31.9808 98.1474 31.5262C98.9394 31.0568 99.8561 30.8222 100.897 30.8222C101.968 30.8222 102.936 31.0788 103.801 31.5922C104.681 32.1055 105.371 32.8315 105.869 33.7702C106.368 34.6942 106.617 35.7722 106.617 37.0042C106.617 38.2215 106.368 39.3068 105.869 40.2602C105.371 41.2135 104.681 41.9542 103.801 42.4822C102.936 43.0102 101.968 43.2742 100.897 43.2742C99.8707 43.2742 98.9614 43.0468 98.1694 42.5922C97.3921 42.1228 96.7981 41.5435 96.3874 40.8542V48.7962H94.3854V31.0202H96.3874V33.2422ZM104.571 37.0042C104.571 36.0948 104.388 35.3028 104.021 34.6282C103.655 33.9535 103.156 33.4402 102.525 33.0882C101.909 32.7362 101.227 32.5602 100.479 32.5602C99.7461 32.5602 99.0641 32.7435 98.4334 33.1102C97.8174 33.4622 97.3187 33.9828 96.9374 34.6722C96.5707 35.3468 96.3874 36.1315 96.3874 37.0262C96.3874 37.9355 96.5707 38.7348 96.9374 39.4242C97.3187 40.0988 97.8174 40.6195 98.4334 40.9862C99.0641 41.3382 99.7461 41.5142 100.479 41.5142C101.227 41.5142 101.909 41.3382 102.525 40.9862C103.156 40.6195 103.655 40.0988 104.021 39.4242C104.388 38.7348 104.571 37.9282 104.571 37.0042ZM119.98 43.2302C118.968 43.2302 118.058 43.0542 117.252 42.7022C116.46 42.3355 115.836 41.8368 115.382 41.2062C114.927 40.5608 114.692 39.8202 114.678 38.9842H116.812C116.885 39.7028 117.178 40.3115 117.692 40.8102C118.22 41.2942 118.982 41.5362 119.98 41.5362C120.933 41.5362 121.681 41.3015 122.224 40.8322C122.781 40.3482 123.06 39.7322 123.06 38.9842C123.06 38.3975 122.898 37.9208 122.576 37.5542C122.253 37.1875 121.85 36.9088 121.366 36.7182C120.882 36.5275 120.229 36.3222 119.408 36.1022C118.396 35.8382 117.582 35.5742 116.966 35.3102C116.364 35.0462 115.844 34.6355 115.404 34.0782C114.978 33.5062 114.766 32.7435 114.766 31.7902C114.766 30.9542 114.978 30.2135 115.404 29.5682C115.829 28.9228 116.423 28.4242 117.186 28.0722C117.963 27.7202 118.85 27.5442 119.848 27.5442C121.285 27.5442 122.458 27.9035 123.368 28.6222C124.292 29.3408 124.812 30.2942 124.93 31.4822H122.73C122.656 30.8955 122.348 30.3822 121.806 29.9422C121.263 29.4875 120.544 29.2602 119.65 29.2602C118.814 29.2602 118.132 29.4802 117.604 29.9202C117.076 30.3455 116.812 30.9468 116.812 31.7242C116.812 32.2815 116.966 32.7362 117.274 33.0882C117.596 33.4402 117.985 33.7115 118.44 33.9022C118.909 34.0782 119.562 34.2835 120.398 34.5182C121.41 34.7968 122.224 35.0755 122.84 35.3542C123.456 35.6182 123.984 36.0362 124.424 36.6082C124.864 37.1655 125.084 37.9282 125.084 38.8962C125.084 39.6442 124.886 40.3482 124.49 41.0082C124.094 41.6682 123.507 42.2035 122.73 42.6142C121.952 43.0248 121.036 43.2302 119.98 43.2302ZM130.472 32.6702V39.7762C130.472 40.3628 130.597 40.7808 130.846 41.0302C131.095 41.2648 131.528 41.3822 132.144 41.3822H133.618V43.0762H131.814C130.699 43.0762 129.863 42.8195 129.306 42.3062C128.749 41.7928 128.47 40.9495 128.47 39.7762V32.6702H126.908V31.0202H128.47V27.9842H130.472V31.0202H133.618V32.6702H130.472ZM141.302 43.2742C140.172 43.2742 139.146 43.0175 138.222 42.5042C137.312 41.9908 136.594 41.2648 136.066 40.3262C135.552 39.3728 135.296 38.2728 135.296 37.0262C135.296 35.7942 135.56 34.7088 136.088 33.7702C136.63 32.8168 137.364 32.0908 138.288 31.5922C139.212 31.0788 140.246 30.8222 141.39 30.8222C142.534 30.8222 143.568 31.0788 144.492 31.5922C145.416 32.0908 146.142 32.8095 146.67 33.7482C147.212 34.6868 147.484 35.7795 147.484 37.0262C147.484 38.2728 147.205 39.3728 146.648 40.3262C146.105 41.2648 145.364 41.9908 144.426 42.5042C143.487 43.0175 142.446 43.2742 141.302 43.2742ZM141.302 41.5142C142.02 41.5142 142.695 41.3455 143.326 41.0082C143.956 40.6708 144.462 40.1648 144.844 39.4902C145.24 38.8155 145.438 37.9942 145.438 37.0262C145.438 36.0582 145.247 35.2368 144.866 34.5622C144.484 33.8875 143.986 33.3888 143.37 33.0662C142.754 32.7288 142.086 32.5602 141.368 32.5602C140.634 32.5602 139.96 32.7288 139.344 33.0662C138.742 33.3888 138.258 33.8875 137.892 34.5622C137.525 35.2368 137.342 36.0582 137.342 37.0262C137.342 38.0088 137.518 38.8375 137.87 39.5122C138.236 40.1868 138.72 40.6928 139.322 41.0302C139.923 41.3528 140.583 41.5142 141.302 41.5142ZM152.118 32.9782C152.47 32.2888 152.969 31.7535 153.614 31.3722C154.274 30.9908 155.073 30.8002 156.012 30.8002V32.8682H155.484C153.24 32.8682 152.118 34.0855 152.118 36.5202V43.0762H150.116V31.0202H152.118V32.9782ZM169.323 36.5862C169.323 36.9675 169.301 37.3708 169.257 37.7962H159.621C159.694 38.9842 160.098 39.9155 160.831 40.5902C161.579 41.2502 162.481 41.5802 163.537 41.5802C164.402 41.5802 165.121 41.3822 165.693 40.9862C166.28 40.5755 166.69 40.0328 166.925 39.3582H169.081C168.758 40.5168 168.113 41.4628 167.145 42.1962C166.177 42.9148 164.974 43.2742 163.537 43.2742C162.393 43.2742 161.366 43.0175 160.457 42.5042C159.562 41.9908 158.858 41.2648 158.345 40.3262C157.832 39.3728 157.575 38.2728 157.575 37.0262C157.575 35.7795 157.824 34.6868 158.323 33.7482C158.822 32.8095 159.518 32.0908 160.413 31.5922C161.322 31.0788 162.364 30.8222 163.537 30.8222C164.681 30.8222 165.693 31.0715 166.573 31.5702C167.453 32.0688 168.128 32.7582 168.597 33.6382C169.081 34.5035 169.323 35.4862 169.323 36.5862ZM167.255 36.1682C167.255 35.4055 167.086 34.7528 166.749 34.2102C166.412 33.6528 165.95 33.2348 165.363 32.9562C164.791 32.6628 164.153 32.5162 163.449 32.5162C162.437 32.5162 161.572 32.8388 160.853 33.4842C160.149 34.1295 159.746 35.0242 159.643 36.1682H167.255Z" fill="white"/>
<path d="M69.444 12.612C70.372 12.612 71.168 12.78 71.832 13.116C72.496 13.452 73.004 13.936 73.356 14.568C73.708 15.2 73.884 15.952 73.884 16.824C73.884 17.688 73.708 18.436 73.356 19.068C73.004 19.692 72.496 20.172 71.832 20.508C71.168 20.836 70.372 21 69.444 21H66.96V12.612H69.444ZM69.444 20.304C70.612 20.304 71.5 20 72.108 19.392C72.724 18.776 73.032 17.92 73.032 16.824C73.032 15.72 72.724 14.86 72.108 14.244C71.5 13.62 70.612 13.308 69.444 13.308H67.8V20.304H69.444ZM78.3007 21.096C77.6847 21.096 77.1287 20.96 76.6327 20.688C76.1447 20.408 75.7567 20.016 75.4687 19.512C75.1887 19 75.0487 18.404 75.0487 17.724C75.0487 17.044 75.1927 16.452 75.4807 15.948C75.7687 15.436 76.1607 15.044 76.6567 14.772C77.1527 14.492 77.7087 14.352 78.3247 14.352C78.9407 14.352 79.4967 14.492 79.9927 14.772C80.4967 15.044 80.8887 15.436 81.1687 15.948C81.4567 16.452 81.6007 17.044 81.6007 17.724C81.6007 18.396 81.4567 18.988 81.1687 19.5C80.8807 20.012 80.4847 20.408 79.9807 20.688C79.4767 20.96 78.9167 21.096 78.3007 21.096ZM78.3007 20.364C78.7327 20.364 79.1327 20.268 79.5007 20.076C79.8687 19.876 80.1647 19.58 80.3887 19.188C80.6207 18.788 80.7367 18.3 80.7367 17.724C80.7367 17.148 80.6247 16.664 80.4007 16.272C80.1767 15.872 79.8807 15.576 79.5127 15.384C79.1447 15.184 78.7447 15.084 78.3127 15.084C77.8807 15.084 77.4807 15.184 77.1127 15.384C76.7447 15.576 76.4487 15.872 76.2247 16.272C76.0087 16.664 75.9007 17.148 75.9007 17.724C75.9007 18.3 76.0087 18.788 76.2247 19.188C76.4487 19.58 76.7407 19.876 77.1007 20.076C77.4687 20.268 77.8687 20.364 78.3007 20.364ZM91.7719 14.448L89.7199 21H88.8799L87.0679 15.504L85.2559 21H84.4039L82.3519 14.448H83.2039L84.8359 20.148L86.6719 14.448H87.5119L89.3239 20.16L90.9439 14.448H91.7719ZM95.989 14.328C96.773 14.328 97.413 14.572 97.909 15.06C98.405 15.54 98.653 16.24 98.653 17.16V21H97.825V17.256C97.825 16.544 97.645 16 97.285 15.624C96.933 15.248 96.449 15.06 95.833 15.06C95.201 15.06 94.697 15.26 94.321 15.66C93.945 16.06 93.757 16.648 93.757 17.424V21H92.917V14.448H93.757V15.564C93.965 15.164 94.265 14.86 94.657 14.652C95.049 14.436 95.493 14.328 95.989 14.328ZM101.351 12.12V21H100.511V12.12H101.351ZM106.121 21.096C105.505 21.096 104.949 20.96 104.453 20.688C103.965 20.408 103.577 20.016 103.289 19.512C103.009 19 102.869 18.404 102.869 17.724C102.869 17.044 103.013 16.452 103.301 15.948C103.589 15.436 103.981 15.044 104.477 14.772C104.973 14.492 105.529 14.352 106.145 14.352C106.761 14.352 107.317 14.492 107.813 14.772C108.317 15.044 108.709 15.436 108.989 15.948C109.277 16.452 109.421 17.044 109.421 17.724C109.421 18.396 109.277 18.988 108.989 19.5C108.701 20.012 108.305 20.408 107.801 20.688C107.297 20.96 106.737 21.096 106.121 21.096ZM106.121 20.364C106.553 20.364 106.953 20.268 107.321 20.076C107.689 19.876 107.985 19.58 108.209 19.188C108.441 18.788 108.557 18.3 108.557 17.724C108.557 17.148 108.445 16.664 108.221 16.272C107.997 15.872 107.701 15.576 107.333 15.384C106.965 15.184 106.565 15.084 106.133 15.084C105.701 15.084 105.301 15.184 104.933 15.384C104.565 15.576 104.269 15.872 104.045 16.272C103.829 16.664 103.721 17.148 103.721 17.724C103.721 18.3 103.829 18.788 104.045 19.188C104.269 19.58 104.561 19.876 104.921 20.076C105.289 20.268 105.689 20.364 106.121 20.364ZM110.568 17.712C110.568 17.04 110.7 16.452 110.964 15.948C111.236 15.436 111.608 15.044 112.08 14.772C112.56 14.492 113.1 14.352 113.7 14.352C114.324 14.352 114.86 14.496 115.308 14.784C115.764 15.072 116.092 15.44 116.292 15.888V14.448H117.132V21H116.292V19.548C116.084 19.996 115.752 20.368 115.296 20.664C114.848 20.952 114.312 21.096 113.688 21.096C113.096 21.096 112.56 20.956 112.08 20.676C111.608 20.396 111.236 20 110.964 19.488C110.7 18.976 110.568 18.384 110.568 17.712ZM116.292 17.724C116.292 17.196 116.184 16.732 115.968 16.332C115.752 15.932 115.456 15.624 115.08 15.408C114.712 15.192 114.304 15.084 113.856 15.084C113.392 15.084 112.976 15.188 112.608 15.396C112.24 15.604 111.948 15.908 111.732 16.308C111.524 16.7 111.42 17.168 111.42 17.712C111.42 18.248 111.524 18.72 111.732 19.128C111.948 19.528 112.24 19.836 112.608 20.052C112.976 20.26 113.392 20.364 113.856 20.364C114.304 20.364 114.712 20.256 115.08 20.04C115.456 19.824 115.752 19.516 115.968 19.116C116.184 18.716 116.292 18.252 116.292 17.724ZM118.666 17.712C118.666 17.04 118.802 16.452 119.074 15.948C119.346 15.436 119.718 15.044 120.19 14.772C120.67 14.492 121.21 14.352 121.81 14.352C122.386 14.352 122.906 14.492 123.37 14.772C123.834 15.052 124.174 15.416 124.39 15.864V12.12H125.23V21H124.39V19.536C124.19 19.992 123.862 20.368 123.406 20.664C122.95 20.952 122.414 21.096 121.798 21.096C121.198 21.096 120.658 20.956 120.178 20.676C119.706 20.396 119.334 20 119.062 19.488C118.798 18.976 118.666 18.384 118.666 17.712ZM124.39 17.724C124.39 17.196 124.282 16.732 124.066 16.332C123.85 15.932 123.554 15.624 123.178 15.408C122.81 15.192 122.402 15.084 121.954 15.084C121.49 15.084 121.074 15.188 120.706 15.396C120.338 15.604 120.046 15.908 119.83 16.308C119.622 16.7 119.518 17.168 119.518 17.712C119.518 18.248 119.622 18.72 119.83 19.128C120.046 19.528 120.338 19.836 120.706 20.052C121.074 20.26 121.49 20.364 121.954 20.364C122.402 20.364 122.81 20.256 123.178 20.04C123.554 19.824 123.85 19.516 124.066 19.116C124.282 18.716 124.39 18.252 124.39 17.724ZM133.308 21.096C132.692 21.096 132.136 20.96 131.64 20.688C131.152 20.408 130.764 20.016 130.476 19.512C130.196 19 130.056 18.404 130.056 17.724C130.056 17.044 130.2 16.452 130.488 15.948C130.776 15.436 131.168 15.044 131.664 14.772C132.16 14.492 132.716 14.352 133.332 14.352C133.948 14.352 134.504 14.492 135 14.772C135.504 15.044 135.896 15.436 136.176 15.948C136.464 16.452 136.608 17.044 136.608 17.724C136.608 18.396 136.464 18.988 136.176 19.5C135.888 20.012 135.492 20.408 134.988 20.688C134.484 20.96 133.924 21.096 133.308 21.096ZM133.308 20.364C133.74 20.364 134.14 20.268 134.508 20.076C134.876 19.876 135.172 19.58 135.396 19.188C135.628 18.788 135.744 18.3 135.744 17.724C135.744 17.148 135.632 16.664 135.408 16.272C135.184 15.872 134.888 15.576 134.52 15.384C134.152 15.184 133.752 15.084 133.32 15.084C132.888 15.084 132.488 15.184 132.12 15.384C131.752 15.576 131.456 15.872 131.232 16.272C131.016 16.664 130.908 17.148 130.908 17.724C130.908 18.3 131.016 18.788 131.232 19.188C131.456 19.58 131.748 19.876 132.108 20.076C132.476 20.268 132.876 20.364 133.308 20.364ZM141.212 14.328C141.996 14.328 142.636 14.572 143.132 15.06C143.628 15.54 143.876 16.24 143.876 17.16V21H143.048V17.256C143.048 16.544 142.868 16 142.508 15.624C142.156 15.248 141.672 15.06 141.056 15.06C140.424 15.06 139.92 15.26 139.544 15.66C139.168 16.06 138.98 16.648 138.98 17.424V21H138.14V14.448H138.98V15.564C139.188 15.164 139.488 14.86 139.88 14.652C140.272 14.436 140.716 14.328 141.212 14.328ZM150.118 15.156V19.224C150.118 19.624 150.194 19.9 150.346 20.052C150.498 20.204 150.766 20.28 151.15 20.28H151.918V21H151.018C150.426 21 149.986 20.864 149.698 20.592C149.41 20.312 149.266 19.856 149.266 19.224V15.156H148.354V14.448H149.266V12.804H150.118V14.448H151.918V15.156H150.118ZM156.424 14.328C156.92 14.328 157.364 14.432 157.756 14.64C158.156 14.848 158.468 15.168 158.692 15.6C158.924 16.024 159.04 16.544 159.04 17.16V21H158.212V17.256C158.212 16.544 158.032 16 157.672 15.624C157.32 15.248 156.836 15.06 156.22 15.06C155.588 15.06 155.084 15.26 154.708 15.66C154.332 16.06 154.144 16.648 154.144 17.424V21H153.304V12.12H154.144V15.564C154.352 15.172 154.656 14.868 155.056 14.652C155.464 14.436 155.92 14.328 156.424 14.328ZM166.826 17.388C166.826 17.676 166.818 17.896 166.802 18.048H161.366C161.39 18.544 161.51 18.968 161.726 19.32C161.942 19.672 162.226 19.94 162.578 20.124C162.93 20.3 163.314 20.388 163.73 20.388C164.274 20.388 164.73 20.256 165.098 19.992C165.474 19.728 165.722 19.372 165.842 18.924H166.73C166.57 19.564 166.226 20.088 165.698 20.496C165.178 20.896 164.522 21.096 163.73 21.096C163.114 21.096 162.562 20.96 162.074 20.688C161.586 20.408 161.202 20.016 160.922 19.512C160.65 19 160.514 18.404 160.514 17.724C160.514 17.044 160.65 16.448 160.922 15.936C161.194 15.424 161.574 15.032 162.062 14.76C162.55 14.488 163.106 14.352 163.73 14.352C164.354 14.352 164.898 14.488 165.362 14.76C165.834 15.032 166.194 15.4 166.442 15.864C166.698 16.32 166.826 16.828 166.826 17.388ZM165.974 17.364C165.982 16.876 165.882 16.46 165.674 16.116C165.474 15.772 165.198 15.512 164.846 15.336C164.494 15.16 164.11 15.072 163.694 15.072C163.07 15.072 162.538 15.272 162.098 15.672C161.658 16.072 161.414 16.636 161.366 17.364H165.974Z" fill="white"/>
</svg>
