<svg width="120" height="32" viewBox="0 0 120 32" fill="none" xmlns="http://www.w3.org/2000/svg">
<path d="M117.243 19.0967L115.098 24.877H115.039L112.801 19.0967H110.785L114.137 27.1892L112.226 31.6891H114.195L119.352 19.0967H117.254H117.243ZM102.1 14.2984H100.225V27.6367H102.1V14.2984ZM95.0562 14.2984H90.5556V27.6367H92.4425V22.5898H95.0679C97.2713 22.6643 99.1231 20.837 99.1934 18.5C99.1934 18.4752 99.1934 18.4627 99.1934 18.4379C99.1465 16.1009 97.3182 14.2363 95.1148 14.286C95.0913 14.286 95.0796 14.286 95.0562 14.286V14.2984ZM95.103 20.7251H92.4425V16.1755H95.1148C96.2985 16.1755 97.2596 17.1948 97.2596 18.4503C97.2596 19.7058 96.2985 20.7251 95.1148 20.7251H95.103ZM106.706 18.8108C105.311 18.7238 103.987 19.5318 103.354 20.8494L105.03 21.6077C105.37 20.9489 106.038 20.576 106.741 20.6381C107.726 20.5387 108.617 21.297 108.71 22.3411V22.4779C108.113 22.1298 107.445 21.9558 106.765 21.9558C104.972 21.9558 103.143 23 103.143 24.9889C103.143 26.7789 104.608 27.9226 106.261 27.9226C107.222 27.9847 108.136 27.4875 108.64 26.6173H108.71V27.6491H110.539V22.5152C110.539 20.1409 108.863 18.8232 106.706 18.8232V18.7859V18.8108ZM106.483 26.1325C105.874 26.1325 105.007 25.7969 105.007 25.0013C105.007 23.9696 106.073 23.5718 106.999 23.5718C107.597 23.5594 108.195 23.7085 108.71 24.0193C108.57 25.2127 107.609 26.1201 106.472 26.1325H106.483ZM38.7753 27.935C35.0834 27.9474 32.0596 24.8024 32.001 20.8867C32.0596 16.971 35.0834 13.826 38.7753 13.8385C40.4865 13.8136 42.139 14.5097 43.3579 15.7901L42.0687 17.1451C41.1897 16.2376 40.0059 15.728 38.787 15.7404C36.1148 15.7404 33.9583 18.0401 33.9583 20.8619C33.9583 23.6837 36.1265 25.9834 38.787 25.9834C40.0528 26.0331 41.2717 25.5234 42.1625 24.5663C42.7485 23.9074 43.0884 23.0497 43.1587 22.1423H38.7987V20.2776H44.9402C45.0105 20.6754 45.0339 21.0732 45.0339 21.4834C45.0925 23.1616 44.53 24.79 43.4517 26.0331C42.2328 27.3508 40.5333 28.0469 38.7987 27.9474L38.7753 27.935ZM54.5039 23.3853C54.5977 25.8715 52.7811 27.9599 50.437 28.0593C48.0929 28.1588 46.1239 26.232 46.0302 23.7458C46.0302 23.6215 46.0302 23.4972 46.0302 23.3729C45.9364 20.8867 47.7531 18.7984 50.0971 18.6989C52.4412 18.5995 54.4102 20.5262 54.5039 23.0124C54.5039 23.1367 54.5039 23.261 54.5039 23.3853ZM52.6521 23.3853C52.7811 21.9931 51.8083 20.75 50.4956 20.6257C49.1829 20.489 48.0109 21.5207 47.8937 22.913C47.882 23.0746 47.882 23.2362 47.8937 23.3978C47.7648 24.79 48.7376 26.0331 50.0502 26.1574C51.3629 26.2941 52.5349 25.2624 52.6521 23.8701C52.6639 23.7085 52.6639 23.5469 52.6521 23.3853ZM64.0091 23.3853C64.0091 25.8715 62.1104 27.8729 59.7781 27.8729C57.4457 27.8729 55.547 25.8591 55.547 23.3853C55.547 20.9116 57.4457 18.8978 59.7781 18.8978C62.1104 18.8978 64.0091 20.9116 64.0091 23.3853ZM62.1573 23.3853C62.2862 21.9931 61.3134 20.75 60.0008 20.6257C58.6881 20.489 57.5161 21.5207 57.3989 22.913C57.3871 23.0746 57.3871 23.2362 57.3989 23.3978C57.2699 24.79 58.2427 26.0331 59.5554 26.1574C60.8681 26.2941 62.0401 25.2624 62.1573 23.8701C62.169 23.7085 62.169 23.5469 62.1573 23.3853ZM73.2799 19.1216V27.2762C73.2799 30.6201 71.4046 31.9999 69.1895 31.9999C67.5252 32.0123 66.025 30.9681 65.3804 29.3521L66.9978 28.5938C67.3377 29.5386 68.1815 30.1726 69.1426 30.2098C70.5725 30.2098 71.4398 29.2775 71.4398 27.5497V26.9032H71.3694C70.8069 27.5745 69.9865 27.9474 69.1426 27.935C66.7751 27.935 64.853 25.8964 64.853 23.3853C64.853 20.8743 66.7751 18.8357 69.1426 18.8357C69.9982 18.8108 70.8186 19.1837 71.4046 19.855H71.4749V19.0967H73.2916V19.1216H73.2799ZM71.6156 23.4102C71.7211 21.9931 70.7366 20.7624 69.4004 20.6381C69.377 20.6381 69.3535 20.6381 69.3301 20.6381C67.9588 20.6878 66.8806 21.9061 66.9275 23.3605C66.9275 23.3729 66.9275 23.3978 66.9275 23.4102C66.8689 24.8522 67.912 26.0704 69.2715 26.145C69.295 26.145 69.3067 26.145 69.3301 26.145C70.6545 26.0952 71.6742 24.9143 71.6273 23.5096C71.6273 23.4723 71.6273 23.4475 71.6273 23.4102H71.6156ZM76.585 14.3108V27.6491H74.698V14.3108H76.585ZM84.0156 24.8895L85.4924 25.9212C84.6954 27.1892 83.3593 27.935 81.9177 27.935C79.6323 27.9723 77.7453 26.0331 77.7101 23.5967C77.7101 23.5221 77.7101 23.4599 77.7101 23.3853C77.5226 21.0856 79.1283 19.0594 81.2965 18.8605C83.1249 18.6865 84.8243 19.8798 85.3869 21.732L85.5744 22.2541L79.8667 24.7652C80.23 25.6353 81.0621 26.1823 81.9529 26.145C82.7967 26.1325 83.582 25.6602 84.0156 24.8895ZM79.515 23.2486L83.3593 21.5704C83.0546 20.9365 82.4217 20.5635 81.7653 20.6133C80.4644 20.6754 79.4682 21.8315 79.5268 23.2113C79.5268 23.2237 79.5268 23.2362 79.5268 23.261L79.515 23.2486Z" fill="white"/>
<path d="M36.7102 3.14703C36.5597 2.83049 36.3417 2.58659 36.0563 2.41535C35.7709 2.23892 35.4388 2.1507 35.06 2.1507C34.6812 2.1507 34.3387 2.23892 34.0325 2.41535C33.7316 2.58659 33.4929 2.83568 33.3164 3.16259C33.1452 3.48432 33.0596 3.85795 33.0596 4.28346C33.0596 4.70897 33.1452 5.08259 33.3164 5.40432C33.4929 5.72605 33.7316 5.97514 34.0325 6.15157C34.3387 6.32281 34.6812 6.40843 35.06 6.40843C35.5893 6.40843 36.0252 6.25016 36.3677 5.93362C36.7102 5.61708 36.9099 5.18897 36.967 4.6493H34.8031V4.0733H37.7221V4.61816C37.6805 5.06443 37.5404 5.47438 37.3017 5.848C37.063 6.21643 36.7491 6.50962 36.3599 6.72757C35.9707 6.94032 35.5374 7.0467 35.06 7.0467C34.5567 7.0467 34.0974 6.92995 33.6823 6.69643C33.2671 6.45773 32.9376 6.12822 32.6937 5.70789C32.455 5.28757 32.3357 4.81276 32.3357 4.28346C32.3357 3.75416 32.455 3.27935 32.6937 2.85903C32.9376 2.43351 33.2671 2.104 33.6823 1.87049C34.0974 1.63178 34.5567 1.51243 35.06 1.51243C35.636 1.51243 36.1445 1.65513 36.5856 1.94054C37.0319 2.22595 37.3562 2.62811 37.5586 3.14703H36.7102ZM42.5505 4.70378C42.5505 4.8387 42.5427 4.98141 42.5271 5.13189H39.1178C39.1438 5.55222 39.2865 5.88173 39.546 6.12043C39.8106 6.35395 40.1297 6.4707 40.5034 6.4707C40.8095 6.4707 41.0638 6.40065 41.2662 6.26054C41.4737 6.11524 41.619 5.92324 41.7021 5.68454H42.4649C42.3507 6.09449 42.1224 6.42919 41.7799 6.68865C41.4374 6.94292 41.0119 7.07005 40.5034 7.07005C40.0986 7.07005 39.7354 6.97924 39.4136 6.79762C39.0971 6.616 38.848 6.35914 38.6664 6.02703C38.4848 5.68973 38.394 5.30054 38.394 4.85946C38.394 4.41838 38.4822 4.03178 38.6586 3.69968C38.835 3.36757 39.0815 3.1133 39.3981 2.93686C39.7198 2.75524 40.0882 2.66443 40.5034 2.66443C40.9081 2.66443 41.2662 2.75265 41.5775 2.92908C41.8889 3.10551 42.1276 3.34941 42.2936 3.66076C42.4649 3.96692 42.5505 4.31459 42.5505 4.70378ZM41.8188 4.55589C41.8188 4.28605 41.7591 4.05513 41.6398 3.86313C41.5204 3.66595 41.357 3.51805 41.1494 3.41946C40.947 3.31568 40.7213 3.26378 40.4722 3.26378C40.1142 3.26378 39.808 3.37795 39.5537 3.60627C39.3047 3.83459 39.162 4.15113 39.1256 4.55589H41.8188ZM44.3495 3.31827V5.83243C44.3495 6.04 44.3936 6.18789 44.4818 6.27611C44.57 6.35914 44.7231 6.40065 44.941 6.40065H45.4625V7H44.8243C44.4299 7 44.1341 6.90919 43.9369 6.72757C43.7397 6.54595 43.6411 6.24757 43.6411 5.83243V3.31827H43.0885V2.73449H43.6411V1.66032H44.3495V2.73449H45.4625V3.31827H44.3495ZM48.7618 2.04173C48.6269 2.04173 48.5127 1.99503 48.4193 1.90162C48.3259 1.80822 48.2792 1.69405 48.2792 1.55913C48.2792 1.42422 48.3259 1.31005 48.4193 1.21665C48.5127 1.12324 48.6269 1.07654 48.7618 1.07654C48.8915 1.07654 49.0005 1.12324 49.0887 1.21665C49.1821 1.31005 49.2288 1.42422 49.2288 1.55913C49.2288 1.69405 49.1821 1.80822 49.0887 1.90162C49.0005 1.99503 48.8915 2.04173 48.7618 2.04173ZM49.1043 2.73449V7H48.3959V2.73449H49.1043ZM51.1755 3.31827V5.83243C51.1755 6.04 51.2196 6.18789 51.3078 6.27611C51.396 6.35914 51.5491 6.40065 51.767 6.40065H52.2886V7H51.6503C51.2559 7 50.9601 6.90919 50.7629 6.72757C50.5657 6.54595 50.4672 6.24757 50.4672 5.83243V3.31827H49.9145V2.73449H50.4672V1.66032H51.1755V2.73449H52.2886V3.31827H51.1755ZM57.0823 7.07005C56.6827 7.07005 56.3195 6.97924 55.9925 6.79762C55.6708 6.616 55.4165 6.35914 55.2297 6.02703C55.0481 5.68973 54.9573 5.30054 54.9573 4.85946C54.9573 4.42357 55.0507 4.03957 55.2375 3.70746C55.4295 3.37016 55.689 3.1133 56.0159 2.93686C56.3428 2.75524 56.7087 2.66443 57.1134 2.66443C57.5182 2.66443 57.884 2.75524 58.2109 2.93686C58.5378 3.1133 58.7947 3.36757 58.9815 3.69968C59.1735 4.03178 59.2695 4.41838 59.2695 4.85946C59.2695 5.30054 59.1709 5.68973 58.9737 6.02703C58.7817 6.35914 58.5197 6.616 58.1876 6.79762C57.8555 6.97924 57.487 7.07005 57.0823 7.07005ZM57.0823 6.44735C57.3365 6.44735 57.5752 6.38768 57.7984 6.26832C58.0215 6.14897 58.2005 5.96995 58.3355 5.73124C58.4756 5.49254 58.5456 5.20195 58.5456 4.85946C58.5456 4.51697 58.4782 4.22638 58.3432 3.98768C58.2083 3.74897 58.0319 3.57254 57.814 3.45838C57.596 3.33903 57.3599 3.27935 57.1056 3.27935C56.8462 3.27935 56.6075 3.33903 56.3895 3.45838C56.1768 3.57254 56.0055 3.74897 55.8758 3.98768C55.7461 4.22638 55.6812 4.51697 55.6812 4.85946C55.6812 5.20714 55.7435 5.50032 55.868 5.73903C55.9977 5.97773 56.169 6.15676 56.3817 6.27611C56.5945 6.39027 56.828 6.44735 57.0823 6.44735ZM62.2791 2.65665C62.798 2.65665 63.2183 2.81492 63.5401 3.13146C63.8618 3.44281 64.0227 3.89427 64.0227 4.48584V7H63.3221V4.58703C63.3221 4.16151 63.2158 3.83719 63.003 3.61405C62.7902 3.38573 62.4996 3.27157 62.1312 3.27157C61.7576 3.27157 61.4592 3.38832 61.2361 3.62184C61.0181 3.85535 60.9092 4.19524 60.9092 4.64151V7H60.2008V2.73449H60.9092V3.34162C61.0493 3.12368 61.2387 2.95503 61.4774 2.83568C61.7213 2.71632 61.9885 2.65665 62.2791 2.65665Z" fill="white"/>
<path fill-rule="evenodd" clip-rule="evenodd" d="M0.56491 1.51211L13.1702 14.2702L0.56491 27.0284C0.504122 26.9659 0.447205 26.8995 0.394626 26.8294C1.24579e-07 26.3031 0 25.3988 0 23.5903V4.95023C0 3.1417 1.24579e-07 2.23742 0.394626 1.71118C0.447205 1.64107 0.504122 1.57462 0.56491 1.51211ZM2.11475 0.864845L14.2649 13.1623L18.0988 9.28199L5.09096 2.16474C3.58217 1.33925 2.76213 0.890536 2.11475 0.864845ZM19.5199 10.0595L15.3596 14.2702L19.5199 18.4811L22.1247 17.0557C23.7775 16.1515 24.6038 15.6993 24.8874 15.1123C25.1456 14.5776 25.1456 13.9629 24.8874 13.4282C24.6038 12.8412 23.7775 12.389 22.1247 11.4848L19.5199 10.0595ZM18.0988 19.2586L14.2649 15.3782L2.11475 27.6757C2.76212 27.65 3.58217 27.2013 5.09088 26.3758L18.0988 19.2586Z" fill="white"/>
</svg>
