<svg width="138" height="37" viewBox="0 0 138 37" fill="none" xmlns="http://www.w3.org/2000/svg">
<path d="M135.561 22.0806L133.081 28.7641H133.013L130.425 22.0806H128.094L131.97 31.4375L129.761 36.6405H132.037L138 22.0806H135.574H135.561ZM118.052 16.5325H115.884V31.9549H118.052V16.5325ZM109.908 16.5325H104.704V31.9549H106.886V26.1194H109.921C112.469 26.2057 114.61 24.0928 114.691 21.3907C114.691 21.3619 114.691 21.3475 114.691 21.3188C114.637 18.6167 112.523 16.4607 109.975 16.5182C109.948 16.5182 109.935 16.5182 109.908 16.5182V16.5325ZM109.962 23.9635H106.886V18.7029H109.975C111.344 18.7029 112.455 19.8815 112.455 21.3332C112.455 22.7849 111.344 23.9635 109.975 23.9635H109.962ZM123.378 21.75C121.765 21.6494 120.234 22.5836 119.502 24.1072L121.44 24.9839C121.833 24.2222 122.605 23.791 123.418 23.8628C124.557 23.7479 125.587 24.6246 125.695 25.832V25.9901C125.004 25.5876 124.232 25.3864 123.446 25.3864C121.372 25.3864 119.258 26.5937 119.258 28.8934C119.258 30.9632 120.952 32.2855 122.863 32.2855C123.974 32.3574 125.031 31.7824 125.614 30.7763H125.695V31.9693H127.809V26.0332C127.809 23.2879 125.871 21.7644 123.378 21.7644V21.7212V21.75ZM123.12 30.2158C122.416 30.2158 121.413 29.8277 121.413 28.9078C121.413 27.7148 122.646 27.2549 123.717 27.2549C124.408 27.2405 125.099 27.413 125.695 27.7723C125.533 29.1521 124.421 30.2014 123.107 30.2158H123.12ZM44.8328 32.2999C40.5641 32.3142 37.0678 28.6778 37 24.1503C37.0678 19.6228 40.5641 15.9864 44.8328 16.0007C46.8113 15.972 48.7221 16.7769 50.1315 18.2573L48.6408 19.824C47.6244 18.7748 46.2557 18.1855 44.8464 18.1998C41.7566 18.1998 39.2631 20.8589 39.2631 24.1216C39.2631 27.3843 41.7702 30.0433 44.8464 30.0433C46.3099 30.1008 47.7193 29.5115 48.7492 28.4047C49.4268 27.643 49.8198 26.6512 49.9011 25.602H44.8599V23.446H51.961C52.0423 23.906 52.0694 24.3659 52.0694 24.8402C52.1371 26.7806 51.4867 28.6635 50.2399 30.1008C48.8305 31.6243 46.8656 32.4292 44.8599 32.3142L44.8328 32.2999ZM63.0191 27.0393C63.1275 29.9139 61.027 32.3286 58.3167 32.4436C55.6063 32.5586 53.3297 30.3307 53.2213 27.4561C53.2213 27.3124 53.2213 27.1687 53.2213 27.0249C53.1128 24.1503 55.2133 21.7356 57.9237 21.6206C60.634 21.5057 62.9106 23.7335 63.0191 26.6081C63.0191 26.7518 63.0191 26.8956 63.0191 27.0393ZM60.8779 27.0393C61.027 25.4295 59.9022 23.9922 58.3844 23.8485C56.8666 23.6904 55.5115 24.8833 55.376 26.4931C55.3624 26.68 55.3624 26.8668 55.376 27.0537C55.2269 28.6635 56.3517 30.1008 57.8695 30.2445C59.3872 30.4026 60.7424 29.2096 60.8779 27.5999C60.8915 27.413 60.8915 27.2262 60.8779 27.0393ZM74.0094 27.0393C74.0094 29.9139 71.814 32.228 69.1173 32.228C66.4205 32.228 64.2251 29.8996 64.2251 27.0393C64.2251 24.179 66.4205 21.8506 69.1173 21.8506C71.814 21.8506 74.0094 24.179 74.0094 27.0393ZM71.8682 27.0393C72.0173 25.4295 70.8925 23.9922 69.3747 23.8485C67.857 23.6904 66.5018 24.8833 66.3663 26.4931C66.3527 26.68 66.3527 26.8668 66.3663 27.0537C66.2172 28.6635 67.342 30.1008 68.8598 30.2445C70.3776 30.4026 71.7327 29.2096 71.8682 27.5999C71.8818 27.413 71.8818 27.2262 71.8682 27.0393ZM84.7287 22.1093V31.5381C84.7287 35.4045 82.5605 36.9999 79.9992 36.9999C78.0749 37.0142 76.3403 35.8069 75.5949 33.9384L77.465 33.0616C77.858 34.154 78.8338 34.887 79.945 34.9301C81.5983 34.9301 82.6011 33.8522 82.6011 31.8543V31.1069H82.5198C81.8693 31.883 80.9207 32.3142 79.945 32.2999C77.2076 32.2999 74.9851 29.9427 74.9851 27.0393C74.9851 24.1359 77.2076 21.7787 79.945 21.7787C80.9343 21.75 81.8829 22.1812 82.5605 22.9573H82.6418V22.0806H84.7423V22.1093H84.7287ZM82.8044 27.068C82.9263 25.4295 81.788 24.0066 80.2431 23.8628C80.216 23.8628 80.1889 23.8628 80.1618 23.8628C78.5763 23.9203 77.3295 25.3289 77.3837 27.0106C77.3837 27.0249 77.3837 27.0537 77.3837 27.068C77.316 28.7353 78.5221 30.1439 80.0941 30.2301C80.1212 30.2301 80.1347 30.2301 80.1618 30.2301C81.6931 30.1726 82.8721 28.8072 82.8179 27.183C82.8179 27.1399 82.8179 27.1112 82.8179 27.068H82.8044ZM88.5503 16.5469V31.9693H86.3684V16.5469H88.5503ZM97.142 28.7784L98.8495 29.9714C97.9279 31.4375 96.3831 32.2999 94.7162 32.2999C92.0737 32.343 89.8919 30.1008 89.8512 27.2836C89.8512 27.1974 89.8512 27.1255 89.8512 27.0393C89.6344 24.3803 91.4909 22.0375 93.998 21.8075C96.112 21.6063 98.077 22.9861 98.7275 25.1277L98.9443 25.7313L92.3447 28.6347C92.7648 29.6408 93.727 30.2733 94.7569 30.2301C95.7326 30.2158 96.6405 29.6696 97.142 28.7784ZM91.9381 26.8812L96.3831 24.9408C96.0307 24.2078 95.2989 23.7766 94.5401 23.8341C93.0358 23.906 91.8839 25.2427 91.9517 26.8381C91.9517 26.8525 91.9517 26.8668 91.9517 26.8956L91.9381 26.8812Z" fill="white"/>
<path d="M44.26 4.06C44.028 3.572 43.692 3.196 43.252 2.932C42.812 2.66 42.3 2.524 41.716 2.524C41.132 2.524 40.604 2.66 40.132 2.932C39.668 3.196 39.3 3.58 39.028 4.084C38.764 4.58 38.632 5.156 38.632 5.812C38.632 6.468 38.764 7.044 39.028 7.54C39.3 8.036 39.668 8.42 40.132 8.692C40.604 8.956 41.132 9.088 41.716 9.088C42.532 9.088 43.204 8.844 43.732 8.356C44.26 7.868 44.568 7.208 44.656 6.376H41.32V5.488H45.82V6.328C45.756 7.016 45.54 7.648 45.172 8.224C44.804 8.792 44.32 9.244 43.72 9.58C43.12 9.908 42.452 10.072 41.716 10.072C40.94 10.072 40.232 9.892 39.592 9.532C38.952 9.164 38.444 8.656 38.068 8.008C37.7 7.36 37.516 6.628 37.516 5.812C37.516 4.996 37.7 4.264 38.068 3.616C38.444 2.96 38.952 2.452 39.592 2.092C40.232 1.724 40.94 1.54 41.716 1.54C42.604 1.54 43.388 1.76 44.068 2.2C44.756 2.64 45.256 3.26 45.568 4.06H44.26ZM53.2638 6.46C53.2638 6.668 53.2518 6.888 53.2278 7.12H47.9718C48.0118 7.768 48.2318 8.276 48.6318 8.644C49.0398 9.004 49.5318 9.184 50.1078 9.184C50.5798 9.184 50.9718 9.076 51.2838 8.86C51.6038 8.636 51.8278 8.34 51.9558 7.972H53.1318C52.9558 8.604 52.6038 9.12 52.0758 9.52C51.5478 9.912 50.8918 10.108 50.1078 10.108C49.4838 10.108 48.9238 9.968 48.4278 9.688C47.9398 9.408 47.5558 9.012 47.2758 8.5C46.9958 7.98 46.8558 7.38 46.8558 6.7C46.8558 6.02 46.9918 5.424 47.2638 4.912C47.5358 4.4 47.9158 4.008 48.4038 3.736C48.8998 3.456 49.4678 3.316 50.1078 3.316C50.7318 3.316 51.2838 3.452 51.7638 3.724C52.2438 3.996 52.6118 4.372 52.8678 4.852C53.1318 5.324 53.2638 5.86 53.2638 6.46ZM52.1358 6.232C52.1358 5.816 52.0438 5.46 51.8598 5.164C51.6758 4.86 51.4238 4.632 51.1038 4.48C50.7918 4.32 50.4438 4.24 50.0598 4.24C49.5078 4.24 49.0358 4.416 48.6438 4.768C48.2598 5.12 48.0398 5.608 47.9838 6.232H52.1358ZM56.0373 4.324V8.2C56.0373 8.52 56.1053 8.748 56.2413 8.884C56.3773 9.012 56.6133 9.076 56.9492 9.076H57.7533V10H56.7693C56.1613 10 55.7053 9.86 55.4013 9.58C55.0973 9.3 54.9453 8.84 54.9453 8.2V4.324H54.0933V3.424H54.9453V1.768H56.0373V3.424H57.7533V4.324H56.0373ZM62.8396 2.356C62.6316 2.356 62.4556 2.284 62.3116 2.14C62.1676 1.996 62.0956 1.82 62.0956 1.612C62.0956 1.404 62.1676 1.228 62.3116 1.084C62.4556 0.94 62.6316 0.868 62.8396 0.868C63.0396 0.868 63.2076 0.94 63.3436 1.084C63.4876 1.228 63.5596 1.404 63.5596 1.612C63.5596 1.82 63.4876 1.996 63.3436 2.14C63.2076 2.284 63.0396 2.356 62.8396 2.356ZM63.3676 3.424V10H62.2756V3.424H63.3676ZM66.5607 4.324V8.2C66.5607 8.52 66.6287 8.748 66.7647 8.884C66.9007 9.012 67.1367 9.076 67.4727 9.076H68.2767V10H67.2927C66.6847 10 66.2287 9.86 65.9247 9.58C65.6207 9.3 65.4687 8.84 65.4687 8.2V4.324H64.6167V3.424H65.4687V1.768H66.5607V3.424H68.2767V4.324H66.5607ZM75.667 10.108C75.051 10.108 74.491 9.968 73.987 9.688C73.491 9.408 73.099 9.012 72.811 8.5C72.531 7.98 72.391 7.38 72.391 6.7C72.391 6.028 72.535 5.436 72.823 4.924C73.119 4.404 73.519 4.008 74.023 3.736C74.527 3.456 75.091 3.316 75.715 3.316C76.339 3.316 76.903 3.456 77.407 3.736C77.911 4.008 78.307 4.4 78.595 4.912C78.891 5.424 79.039 6.02 79.039 6.7C79.039 7.38 78.887 7.98 78.583 8.5C78.287 9.012 77.883 9.408 77.371 9.688C76.859 9.968 76.291 10.108 75.667 10.108ZM75.667 9.148C76.059 9.148 76.427 9.056 76.771 8.872C77.115 8.688 77.391 8.412 77.599 8.044C77.815 7.676 77.923 7.228 77.923 6.7C77.923 6.172 77.819 5.724 77.611 5.356C77.403 4.988 77.131 4.716 76.795 4.54C76.459 4.356 76.095 4.264 75.703 4.264C75.303 4.264 74.935 4.356 74.599 4.54C74.271 4.716 74.007 4.988 73.807 5.356C73.607 5.724 73.507 6.172 73.507 6.7C73.507 7.236 73.603 7.688 73.795 8.056C73.995 8.424 74.259 8.7 74.587 8.884C74.915 9.06 75.275 9.148 75.667 9.148ZM83.6788 3.304C84.4788 3.304 85.1268 3.548 85.6228 4.036C86.1188 4.516 86.3668 5.212 86.3668 6.124V10H85.2868V6.28C85.2868 5.624 85.1228 5.124 84.7948 4.78C84.4668 4.428 84.0188 4.252 83.4508 4.252C82.8748 4.252 82.4148 4.432 82.0708 4.792C81.7348 5.152 81.5668 5.676 81.5668 6.364V10H80.4748V3.424H81.5668V4.36C81.7828 4.024 82.0748 3.764 82.4428 3.58C82.8188 3.396 83.2308 3.304 83.6788 3.304Z" fill="white"/>
<path fill-rule="evenodd" clip-rule="evenodd" d="M0.653177 1.7484L15.228 16.5L0.653177 31.2516C0.582891 31.1793 0.51708 31.1025 0.456287 31.0215C1.44045e-07 30.4129 0 29.3674 0 27.2763V5.72373C0 3.63261 1.44045e-07 2.58704 0.456287 1.97858C0.51708 1.8975 0.582891 1.82068 0.653177 1.7484ZM2.44518 1L16.4938 15.2189L20.9267 10.7323L5.88643 2.503C4.14188 1.54853 3.19372 1.02971 2.44518 1ZM22.5699 11.6313L17.7595 16.5L22.5699 21.3687L25.5817 19.7207C27.4927 18.6752 28.4482 18.1524 28.776 17.4736C29.0747 16.8554 29.0747 16.1446 28.776 15.5264C28.4482 14.8477 27.4927 14.3248 25.5817 13.2793L22.5699 11.6313ZM20.9267 22.2677L16.4938 17.7811L2.44518 32C3.19371 31.9703 4.14188 31.4515 5.88633 30.4971L20.9267 22.2677Z" fill="white"/>
</svg>
