<svg width="162" height="26" viewBox="0 0 162 26" fill="none" xmlns="http://www.w3.org/2000/svg">
<path d="M10.6851 26C4.45214 26 0 22.0133 0 16.3973C0 10.7813 4.45214 6.79467 10.6851 6.79467C14.7099 6.79467 17.8798 8.49333 19.2689 11.544L14.9592 13.7973C13.9263 12.0293 12.3948 11.232 10.6495 11.232C7.83576 11.232 5.6275 13.1387 5.6275 16.3973C5.6275 19.656 7.83576 21.5627 10.6495 21.5627C12.3948 21.5627 13.9263 20.8 14.9592 18.9973L19.2689 21.2853C17.8798 24.2667 14.7099 26 10.6851 26Z" fill="#1111AD"/>
<path d="M31.3425 26C25.252 26 20.7998 22.0133 20.7998 16.3973C20.7998 10.7813 25.252 6.79467 31.3425 6.79467C37.433 6.79467 41.8496 10.7813 41.8496 16.3973C41.8496 22.0133 37.433 26 31.3425 26ZM31.3425 21.5627C34.1206 21.5627 36.222 19.6213 36.222 16.3973C36.222 13.1733 34.1206 11.232 31.3425 11.232C28.5644 11.232 26.4273 13.1733 26.4273 16.3973C26.4273 19.6213 28.5644 21.5627 31.3425 21.5627Z" fill="#1111AD"/>
<path d="M59.5254 0H65.0816V25.7227H59.7747V23.5733C58.3856 25.2027 56.3555 26 53.791 26C48.3772 26 44.21 22.256 44.21 16.3973C44.21 10.5387 48.3772 6.79467 53.791 6.79467C56.1418 6.79467 58.1363 7.52267 59.5254 9.048V0ZM54.7527 21.5627C57.4952 21.5627 59.6322 19.6213 59.6322 16.3973C59.6322 13.1733 57.4952 11.232 54.7527 11.232C51.9746 11.232 49.8375 13.1733 49.8375 16.3973C49.8375 19.6213 51.9746 21.5627 54.7527 21.5627Z" fill="#1111AD"/>
<path d="M79.8764 21.6667C81.9066 21.6667 83.3669 21.0773 84.6847 19.864L87.6409 22.984C85.8601 24.96 83.1888 26 79.7339 26C73.1091 26 68.7995 21.944 68.7995 16.3973C68.7995 10.816 73.1448 6.79467 79.0572 6.79467C84.471 6.79467 88.9231 10.2613 88.9588 16.224L74.7831 18.8933C75.6023 20.7307 77.3832 21.6667 79.8764 21.6667ZM79.0572 10.8853C76.2791 10.8853 74.3557 12.688 74.2489 15.8427L83.5806 14.0747C83.0463 12.168 81.3723 10.8853 79.0572 10.8853Z" fill="#1111AD"/>
<path d="M104.02 6.79467C109.398 6.79467 113.565 10.5387 113.565 16.3973C113.565 22.256 109.398 26 104.02 26C101.455 26 99.3896 25.2027 98.0005 23.5733V25.7227H92.6935V0H98.2498V9.048C99.6745 7.52267 101.633 6.79467 104.02 6.79467ZM103.058 21.5627C105.836 21.5627 107.938 19.6213 107.938 16.3973C107.938 13.1733 105.836 11.232 103.058 11.232C100.28 11.232 98.1786 13.1733 98.1786 16.3973C98.1786 19.6213 100.28 21.5627 103.058 21.5627Z" fill="#1111AD"/>
<path d="M126.937 21.6667C128.967 21.6667 130.427 21.0773 131.745 19.864L134.701 22.984C132.921 24.96 130.249 26 126.794 26C120.17 26 115.86 21.944 115.86 16.3973C115.86 10.816 120.205 6.79467 126.118 6.79467C131.532 6.79467 135.984 10.2613 136.019 16.224L121.844 18.8933C122.663 20.7307 124.444 21.6667 126.937 21.6667ZM126.118 10.8853C123.34 10.8853 121.416 12.688 121.309 15.8427L130.641 14.0747C130.107 12.168 128.433 10.8853 126.118 10.8853Z" fill="#1111AD"/>
<path d="M146.628 26C142.318 26 139.754 23.712 139.754 19.552V0H145.31V19.24C145.31 20.8347 146.165 21.7013 147.697 21.7013C148.302 21.7013 148.943 21.528 149.264 21.3547L149.513 25.5493C148.551 25.8613 147.59 26 146.628 26Z" fill="#1111AD"/>
<path d="M159.115 26C154.805 26 152.241 23.712 152.241 19.552V0H157.797V19.24C157.797 20.8347 158.652 21.7013 160.184 21.7013C160.789 21.7013 161.43 21.528 161.751 21.3547L162 25.5493C161.038 25.8613 160.077 26 159.115 26Z" fill="#1111AD"/>
</svg>
