<svg width="160" height="25" viewBox="0 0 160 25" fill="none" xmlns="http://www.w3.org/2000/svg">
<path d="M10.5532 25C4.39717 25 0 21.1667 0 15.7667C0 10.3667 4.39717 6.53333 10.5532 6.53333C14.5283 6.53333 17.6591 8.16667 19.031 11.1L14.7745 13.2667C13.7544 11.5667 12.2417 10.8 10.518 10.8C7.73903 10.8 5.55803 12.6333 5.55803 15.7667C5.55803 18.9 7.73903 20.7333 10.518 20.7333C12.2417 20.7333 13.7544 20 14.7745 18.2667L19.031 20.4667C17.6591 23.3333 14.5283 25 10.5532 25Z" fill="#1111AD"/>
<path d="M30.9556 25C24.9402 25 20.5431 21.1667 20.5431 15.7667C20.5431 10.3667 24.9402 6.53333 30.9556 6.53333C36.9709 6.53333 41.3329 10.3667 41.3329 15.7667C41.3329 21.1667 36.9709 25 30.9556 25ZM30.9556 20.7333C33.6994 20.7333 35.7749 18.8667 35.7749 15.7667C35.7749 12.6667 33.6994 10.8 30.9556 10.8C28.2117 10.8 26.1011 12.6667 26.1011 15.7667C26.1011 18.8667 28.2117 20.7333 30.9556 20.7333Z" fill="#1111AD"/>
<path d="M58.7905 0H64.2782V24.7333H59.0367V22.6667C57.6648 24.2333 55.6597 25 53.1269 25C47.78 25 43.6642 21.4 43.6642 15.7667C43.6642 10.1333 47.78 6.53333 53.1269 6.53333C55.4487 6.53333 57.4186 7.23333 58.7905 8.7V0ZM54.0767 20.7333C56.7854 20.7333 58.896 18.8667 58.896 15.7667C58.896 12.6667 56.7854 10.8 54.0767 10.8C51.3329 10.8 49.2222 12.6667 49.2222 15.7667C49.2222 18.8667 51.3329 20.7333 54.0767 20.7333Z" fill="#1111AD"/>
<path d="M78.8903 20.8333C80.8954 20.8333 82.3376 20.2667 83.6392 19.1L86.5589 22.1C84.8001 24 82.1618 25 78.7496 25C72.2066 25 67.9501 21.1 67.9501 15.7667C67.9501 10.4 72.2417 6.53333 78.0812 6.53333C83.4281 6.53333 87.8253 9.86667 87.8605 15.6L73.8599 18.1667C74.669 19.9333 76.4278 20.8333 78.8903 20.8333ZM78.0812 10.4667C75.3373 10.4667 73.4378 12.2 73.3322 15.2333L82.5487 13.5333C82.0211 11.7 80.3677 10.4667 78.0812 10.4667Z" fill="#1111AD"/>
<path d="M102.736 6.53333C108.047 6.53333 112.163 10.1333 112.163 15.7667C112.163 21.4 108.047 25 102.736 25C100.203 25 98.1625 24.2333 96.7906 22.6667V24.7333H91.5492V0H97.0369V8.7C98.444 7.23333 100.379 6.53333 102.736 6.53333ZM101.786 20.7333C104.53 20.7333 106.605 18.8667 106.605 15.7667C106.605 12.6667 104.53 10.8 101.786 10.8C99.042 10.8 96.9665 12.6667 96.9665 15.7667C96.9665 18.8667 99.042 20.7333 101.786 20.7333Z" fill="#1111AD"/>
<path d="M125.37 20.8333C127.375 20.8333 128.817 20.2667 130.119 19.1L133.038 22.1C131.28 24 128.641 25 125.229 25C118.686 25 114.43 21.1 114.43 15.7667C114.43 10.4 118.721 6.53333 124.561 6.53333C129.908 6.53333 134.305 9.86667 134.34 15.6L120.339 18.1667C121.148 19.9333 122.907 20.8333 125.37 20.8333ZM124.561 10.4667C121.817 10.4667 119.917 12.2 119.812 15.2333L129.028 13.5333C128.501 11.7 126.847 10.4667 124.561 10.4667Z" fill="#1111AD"/>
<path d="M144.818 25C140.561 25 138.029 22.8 138.029 18.8V0H143.516V18.5C143.516 20.0333 144.361 20.8667 145.873 20.8667C146.471 20.8667 147.104 20.7 147.421 20.5333L147.667 24.5667C146.718 24.8667 145.768 25 144.818 25Z" fill="#1111AD"/>
<path d="M157.151 25C152.894 25 150.361 22.8 150.361 18.8V0H155.849V18.5C155.849 20.0333 156.693 20.8667 158.206 20.8667C158.804 20.8667 159.437 20.7 159.754 20.5333L160 24.5667C159.05 24.8667 158.1 25 157.151 25Z" fill="#1111AD"/>
</svg>
