<svg width="29" height="31" viewBox="0 0 29 31" fill="none" xmlns="http://www.w3.org/2000/svg">
<path fill-rule="evenodd" clip-rule="evenodd" d="M0.653177 0.748396L15.228 15.5L0.653177 30.2516C0.582891 30.1793 0.51708 30.1025 0.456287 30.0215C1.44045e-07 29.4129 0 28.3674 0 26.2763V4.72373C0 2.63261 1.44045e-07 1.58704 0.456287 0.97858C0.51708 0.897505 0.582891 0.820675 0.653177 0.748396ZM2.44518 0L16.4938 14.2189L20.9267 9.73232L5.88643 1.503C4.14188 0.548529 3.19372 0.0297054 2.44518 0ZM22.5699 10.6313L17.7595 15.5L22.5699 20.3687L25.5817 18.7207C27.4927 17.6752 28.4482 17.1524 28.776 16.4736C29.0747 15.8554 29.0747 15.1446 28.776 14.5264C28.4482 13.8477 27.4927 13.3248 25.5817 12.2793L22.5699 10.6313ZM20.9267 21.2677L16.4938 16.7811L2.44518 31C3.19371 30.9703 4.14188 30.4515 5.88633 29.4971L20.9267 21.2677Z" fill="white"/>
</svg>
