<svg width="20" height="21" viewBox="0 0 20 21" fill="none" xmlns="http://www.w3.org/2000/svg">
<path d="M14.1543 4.66469L14.5893 5.41815L14.5893 5.41815L14.1543 4.66469ZM17.3236 5.51389L18.077 5.07888L18.077 5.07888L17.3236 5.51389ZM17.9036 6.51851L17.1501 6.95352L17.1501 6.95352L17.9036 6.51851ZM17.0544 9.68777L17.4894 10.4412L17.4894 10.4412L17.0544 9.68777ZM17.0544 11.6249L16.6194 12.3783L17.0544 11.6249ZM17.9036 14.7941L18.6571 15.2292L18.6571 15.2292L17.9036 14.7941ZM17.3236 15.7988L16.5701 15.3637L16.5701 15.3637L17.3236 15.7988ZM14.1543 16.648L14.5893 15.8945L14.5893 15.8945L14.1543 16.648ZM4.99898 16.648L4.56396 15.8945L4.56396 15.8945L4.99898 16.648ZM1.82971 15.7988L2.58317 15.3637L2.58317 15.3637L1.82971 15.7988ZM1.24969 14.7941L0.49623 15.2292L0.496231 15.2292L1.24969 14.7941ZM2.0989 11.6249L1.66388 10.8714L1.66388 10.8714L2.0989 11.6249ZM2.09892 9.68777L1.66391 10.4412L1.66391 10.4412L2.09892 9.68777ZM1.24972 6.51851L0.496257 6.08349L0.496257 6.08349L1.24972 6.51851ZM1.82974 5.51389L2.5832 5.9489L2.5832 5.9489L1.82974 5.51389ZM4.999 4.66469L4.56399 5.41815L4.56399 5.41815L4.999 4.66469ZM8.99653 0.506075C7.23469 0.506075 5.80644 1.93433 5.80644 3.69616H7.54649C7.54649 2.89533 8.19569 2.24612 8.99653 2.24612V0.506075ZM10.1566 0.506075H8.99653V2.24612H10.1566V0.506075ZM13.3466 3.69616C13.3466 1.93433 11.9184 0.506075 10.1566 0.506075V2.24612C10.9574 2.24612 11.6066 2.89533 11.6066 3.69616H13.3466ZM18.077 5.07888C17.1961 3.55308 15.2451 3.03031 13.7193 3.91122L14.5893 5.41815C15.2829 5.01773 16.1697 5.25536 16.5701 5.9489L18.077 5.07888ZM18.657 6.08349L18.077 5.07888L16.5701 5.9489L17.1501 6.95352L18.657 6.08349ZM17.4894 10.4412C19.0152 9.56032 19.538 7.60929 18.657 6.08349L17.1501 6.95352C17.5505 7.64706 17.3129 8.53389 16.6194 8.93431L17.4894 10.4412ZM18.6571 15.2292C19.538 13.7034 19.0152 11.7523 17.4894 10.8714L16.6194 12.3783C17.3129 12.7788 17.5506 13.6656 17.1501 14.3591L18.6571 15.2292ZM18.0771 16.2338L18.6571 15.2292L17.1501 14.3591L16.5701 15.3637L18.0771 16.2338ZM13.7193 17.4014C15.2451 18.2823 17.1961 17.7596 18.0771 16.2338L16.5701 15.3637C16.1697 16.0573 15.2829 16.2949 14.5893 15.8945L13.7193 17.4014ZM10.1566 20.8066C11.9184 20.8066 13.3466 19.3784 13.3466 17.6165H11.6066C11.6066 18.4174 10.9574 19.0666 10.1566 19.0666V20.8066ZM8.99653 20.8066H10.1566V19.0666H8.99653V20.8066ZM5.80644 17.6165C5.80644 19.3784 7.23469 20.8066 8.99653 20.8066V19.0666C8.19569 19.0666 7.54649 18.4174 7.54649 17.6165H5.80644ZM1.07625 16.2338C1.95716 17.7596 3.90819 18.2823 5.43399 17.4014L4.56396 15.8945C3.87042 16.2949 2.98359 16.0573 2.58317 15.3637L1.07625 16.2338ZM0.496231 15.2292L1.07625 16.2338L2.58317 15.3637L2.00316 14.3591L0.496231 15.2292ZM1.66388 10.8714C0.138088 11.7523 -0.384688 13.7034 0.49623 15.2292L2.00316 14.3591C1.60274 13.6656 1.84036 12.7788 2.53391 12.3783L1.66388 10.8714ZM0.496257 6.08349C-0.384661 7.60929 0.138115 9.56032 1.66391 10.4412L2.53393 8.93431C1.84039 8.53389 1.60277 7.64706 2.00318 6.95352L0.496257 6.08349ZM1.07627 5.07888L0.496257 6.08349L2.00318 6.95352L2.5832 5.9489L1.07627 5.07888ZM5.43401 3.91122C3.90822 3.03031 1.95719 3.55308 1.07627 5.07888L2.5832 5.9489C2.98362 5.25536 3.87045 5.01773 4.56399 5.41815L5.43401 3.91122ZM4.56399 5.41815C5.88959 6.18349 7.54649 5.22673 7.54649 3.69616H5.80644C5.80644 3.88735 5.59949 4.00676 5.43401 3.91122L4.56399 5.41815ZM2.53391 12.3783C3.85947 11.613 3.85957 9.69967 2.53393 8.93431L1.66391 10.4412C1.82945 10.5368 1.82949 10.7758 1.66388 10.8714L2.53391 12.3783ZM7.54649 17.6165C7.54649 16.086 5.88962 15.1291 4.56396 15.8945L5.43399 17.4014C5.59943 17.3059 5.80644 17.4253 5.80644 17.6165H7.54649ZM14.5893 15.8945C13.2637 15.1292 11.6066 16.0858 11.6066 17.6165H13.3466C13.3466 17.4254 13.5537 17.3058 13.7193 17.4014L14.5893 15.8945ZM16.6194 8.93431C15.2937 9.69967 15.2938 11.613 16.6194 12.3783L17.4894 10.8714C17.3238 10.7758 17.3239 10.5368 17.4894 10.4412L16.6194 8.93431ZM11.6066 3.69616C11.6066 5.22696 13.2638 6.18344 14.5893 5.41815L13.7193 3.91122C13.5536 4.00688 13.3466 3.88726 13.3466 3.69616H11.6066ZM11.2376 10.6563C11.2376 11.5736 10.4939 12.3172 9.57661 12.3172V14.0573C11.4549 14.0573 12.9776 12.5346 12.9776 10.6563H11.2376ZM9.57661 12.3172C8.65929 12.3172 7.91566 11.5736 7.91566 10.6563H6.17561C6.17561 12.5346 7.69829 14.0573 9.57661 14.0573V12.3172ZM7.91566 10.6563C7.91566 9.73896 8.65929 8.99532 9.57661 8.99532V7.25527C7.69829 7.25527 6.17561 8.77795 6.17561 10.6563H7.91566ZM9.57661 8.99532C10.4939 8.99532 11.2376 9.73896 11.2376 10.6563H12.9776C12.9776 8.77795 11.4549 7.25527 9.57661 7.25527V8.99532Z" fill="#131214"/>
</svg>
