<svg width="21" height="20" viewBox="0 0 21 20" fill="none" xmlns="http://www.w3.org/2000/svg">
<path d="M4.71532 20C4.91532 20 5.11532 19.95 5.31532 19.85L9.99032 17.675C10.1237 17.6083 10.2903 17.575 10.4903 17.575C10.707 17.575 10.882 17.6083 11.0153 17.675L15.6403 19.85C16.257 20.1 16.7487 20.025 17.1153 19.625C17.3487 19.3583 17.4403 19.0083 17.3903 18.575L16.7653 13.475C16.7487 13.325 16.7737 13.1583 16.8403 12.975C16.907 12.7583 16.9903 12.6 17.0903 12.5L20.5903 8.775C20.957 8.35833 21.0737 7.94167 20.9403 7.525C20.7737 7.075 20.432 6.80833 19.9153 6.725L14.8653 5.75C14.7487 5.73333 14.6028 5.6625 14.4278 5.5375C14.2528 5.4125 14.1237 5.29167 14.0403 5.175L11.6903 0.875C11.607 0.708333 11.4903 0.541666 11.3403 0.375C11.0903 0.125 10.807 0 10.4903 0C10.007 0 9.62366 0.275 9.34032 0.825L6.91532 5.175C6.86532 5.29167 6.75282 5.4125 6.57782 5.5375C6.40282 5.6625 6.24032 5.73333 6.09032 5.75L1.06532 6.725C0.515323 6.80833 0.181989 7.075 0.0653226 7.525C-0.0846775 7.95833 0.0236561 8.375 0.390323 8.775L3.91532 12.5C3.99866 12.6167 4.07366 12.775 4.14032 12.975C4.22366 13.175 4.24866 13.3417 4.21532 13.475L3.56532 18.575C3.53199 19.0083 3.63199 19.3583 3.86532 19.625C4.08199 19.875 4.36532 20 4.71532 20Z" fill="#FFBC00"/>
</svg>
