<svg width="32" height="32" viewBox="0 0 32 32" fill="none" xmlns="http://www.w3.org/2000/svg">
<g clip-path="url(#clip0_1104_4178)">
<path d="M10.9672 10.2864H22.4705M21.2845 9.66979C21.0021 7.22579 19.0661 5.33398 16.7188 5.33398C14.3716 5.33398 12.4356 7.22579 12.1537 9.66979C12.1141 10.009 11.861 10.2864 11.5423 10.2864H10.9603C10.3293 10.2864 9.81684 10.8379 9.81684 11.517L8.6665 23.9128C8.6665 24.5919 9.17955 25.1435 9.80994 25.1435H23.5231C24.1552 25.1435 24.6665 24.5913 24.6665 23.9128L23.5162 11.517C23.5162 10.8379 23.0048 10.2864 22.3727 10.2864H21.8953C21.5779 10.2864 21.3242 10.009 21.2845 9.66979Z" stroke="#0C0C0C" stroke-width="2" stroke-linecap="round" stroke-linejoin="round"/>
<circle cx="25" cy="9" r="6" fill="#C60B0B"/>
</g>
<defs>
<clipPath id="clip0_1104_4178">
<rect width="32" height="32" fill="white"/>
</clipPath>
</defs>
</svg>
